<svg version="1.1" id="Layer_1" xmlns="http://www.w3.org/2000/svg" xmlns:xlink="http://www.w3.org/1999/xlink" x="0px" y="0px"
	 width="100%" viewBox="0 0 800 600" enable-background="new 0 0 800 600" xml:space="preserve">
<path fill="#FFFFFF" opacity="1.000000" stroke="none" 
	d="
M558.000000,601.000000 
	C373.500000,601.000000 189.499985,600.986694 5.500054,601.093750 
	C1.750717,601.095886 0.904367,600.249268 0.906386,596.499939 
	C1.012432,399.500000 1.012432,202.500000 0.906386,5.500051 
	C0.904367,1.750745 1.750842,0.905244 5.500036,0.906703 
	C269.166656,1.009302 532.833313,1.009302 796.499939,0.906703 
	C800.249146,0.905244 801.095703,1.750745 801.093628,5.500051 
	C800.987610,202.500000 800.987549,399.500000 801.093628,596.499939 
	C801.095642,600.249268 800.249939,601.101379 796.499878,601.095398 
	C717.166748,600.969421 637.833313,601.000000 558.000000,601.000000 
z"/>
<path fill="#F9F7F8" opacity="1.000000" stroke="none" 
	d="
M336.231842,544.796875 
	C335.243744,547.542847 333.692505,548.516785 331.342224,549.557678 
	C322.583160,553.437134 313.534058,556.597229 304.694458,560.248413 
	C296.823181,563.499573 288.187897,565.054016 279.775848,566.812317 
	C259.791779,570.989380 239.609848,573.618713 219.127853,572.985107 
	C200.252182,572.401367 181.681778,570.406494 163.238785,565.521851 
	C143.613983,560.324158 124.611244,553.911682 106.802544,544.291565 
	C91.231628,535.880249 77.615509,524.893921 66.407066,511.036499 
	C51.113827,492.128906 41.023174,470.756256 34.771358,447.301666 
	C30.331543,430.645050 27.685083,413.878876 26.766432,396.649841 
	C26.243435,386.841187 25.667097,377.024292 26.184427,367.276215 
	C26.669077,358.143951 25.677130,348.795288 27.324081,339.954742 
	C29.355536,329.050262 29.778786,317.945099 32.595486,307.113861 
	C35.698109,295.183167 37.443195,282.891083 41.002201,271.037872 
	C46.469837,252.828018 52.878563,234.970947 60.838367,217.679733 
	C68.738594,200.517944 77.918976,184.143051 88.307022,168.314514 
	C95.523109,157.319168 103.343643,146.960358 111.736786,136.885086 
	C116.176025,131.556152 120.717567,126.331055 125.281631,121.115738 
	C133.591293,111.620323 143.300446,103.608971 152.618668,95.177917 
	C163.329346,85.486977 175.466034,77.764412 187.565063,70.045837 
	C202.487564,60.526028 218.189285,52.581535 234.986969,46.656853 
	C243.244980,43.744175 251.382706,40.428993 259.837616,38.138550 
	C270.334473,35.294937 280.799438,32.367470 291.832672,31.869562 
	C298.788605,31.555658 305.729431,30.974287 312.709290,30.979179 
	C339.025940,30.997623 363.113647,38.148479 384.099213,54.176369 
	C395.385040,62.796024 405.031708,73.246986 414.683685,83.713440 
	C421.822754,91.454956 430.253082,98.110802 438.631683,104.571327 
	C445.473083,109.846535 452.676605,114.731422 460.863678,118.005302 
	C475.325775,123.788452 490.212189,128.229874 505.510315,130.749863 
	C520.330078,133.191055 535.341187,134.608459 550.316223,135.934052 
	C568.948486,137.583420 587.698853,138.073624 606.269043,140.195358 
	C622.155212,142.010422 638.063721,143.768509 653.763000,147.507599 
	C669.453003,151.244492 684.630493,156.013931 699.124634,162.939240 
	C716.184998,171.090683 731.473694,181.767853 743.191650,196.800568 
	C755.138489,212.126953 763.591553,229.085373 769.508118,247.864716 
	C776.754883,270.866150 777.665649,294.095123 776.873718,317.640594 
	C776.473022,329.554626 773.845520,341.250000 770.598938,352.753052 
	C763.716370,377.138672 751.909851,398.758026 733.534363,416.317810 
	C722.809082,426.567017 710.051208,433.888763 695.994934,438.934021 
	C686.836609,442.221222 677.397095,443.500031 667.788330,443.987793 
	C654.476257,444.663452 641.127747,444.019867 627.946106,442.713776 
	C617.908508,441.719238 607.814026,440.708862 597.795776,440.298706 
	C585.256897,439.785309 572.641418,441.304810 560.052856,441.789185 
	C550.405579,442.160370 541.038757,444.353699 531.633362,446.132294 
	C525.667175,447.260498 519.664856,448.635223 513.848877,450.341003 
	C503.415192,453.401093 492.932007,456.647095 483.032715,461.074707 
	C473.167084,465.487152 463.228333,469.955872 454.180542,476.122131 
	C449.436615,479.355286 444.228699,482.016449 438.959137,484.313965 
	C436.949677,485.190033 435.860870,486.442932 434.363525,487.971069 
	C432.851410,486.922241 432.497131,485.437683 432.552887,483.947906 
	C433.060608,470.378998 431.291687,456.861115 431.792236,442.829254 
	C432.024017,442.066345 432.144012,441.771423 432.546204,441.094666 
	C438.023712,438.448242 443.645355,439.331757 449.044464,438.707855 
	C460.455933,437.389069 471.833954,435.869202 483.194672,434.203156 
	C490.878143,433.076355 491.629333,432.356018 491.436707,424.664032 
	C490.844727,401.022034 493.001526,377.426483 492.500702,353.789429 
	C492.461884,351.958679 492.547943,350.121338 493.472534,348.022827 
	C495.846436,345.162140 498.198456,346.297882 500.456116,347.411896 
	C511.321564,352.773132 522.147339,358.217957 533.589111,362.294647 
	C535.501953,362.976166 536.892578,364.513885 539.016846,365.425720 
	C542.217773,364.591644 542.729370,361.525787 544.928345,359.569946 
	C550.109375,357.719330 553.781372,354.357758 557.104919,350.602692 
	C560.912720,346.300507 565.501770,345.263458 571.062012,346.140381 
	C576.044983,346.926270 580.901794,348.920929 587.030090,348.480133 
	C583.855347,344.754181 580.205627,343.141418 577.092163,340.882721 
	C573.205444,338.063019 569.779907,334.022369 565.040405,333.126190 
	C559.683044,332.113159 557.158386,337.971130 552.873840,339.935699 
	C551.527771,340.552948 550.369629,341.582825 548.438293,341.689514 
	C539.408936,338.491943 532.215027,332.699982 524.312500,328.175598 
	C512.377625,321.342529 501.005035,313.551178 489.034668,306.766052 
	C484.221436,304.037811 480.843262,300.283203 478.315887,295.378571 
	C471.701691,282.543060 465.405273,269.545868 458.465485,256.873108 
	C453.361847,247.553299 449.767792,237.485535 444.772797,228.094177 
	C443.985199,226.613312 443.757324,224.939651 443.605408,222.849701 
	C443.270325,202.491547 443.526703,182.551620 443.434143,162.612503 
	C443.400391,155.347534 442.755920,154.486649 435.460815,154.622864 
	C421.829712,154.877365 408.268188,152.951385 394.633820,153.516357 
	C392.650818,153.598526 390.622925,153.494095 388.672791,151.799820 
	C387.133514,149.027725 388.740143,146.573380 388.268921,143.766693 
	C388.187286,140.004089 388.943909,136.806244 390.423340,133.758011 
	C392.222900,130.050064 392.079071,126.671402 388.552460,123.971344 
	C385.975098,121.998032 384.867584,119.470726 385.015076,116.171883 
	C385.162506,112.873581 383.433167,111.049461 380.015503,111.816032 
	C375.739166,112.775200 373.116089,110.589127 370.643829,107.608589 
	C364.001678,99.600792 355.967163,100.312225 350.693207,109.372665 
	C349.152924,112.018806 347.102936,114.104355 344.760620,116.023346 
	C339.859833,120.038414 338.933014,123.964584 342.617462,128.985382 
	C344.706970,131.832733 343.494171,134.214523 343.583679,137.074646 
	C344.646973,137.805588 345.557343,138.165237 346.476715,139.182037 
	C347.603912,142.593399 346.104431,145.597305 346.399933,149.087097 
	C346.232483,153.923019 343.132507,155.139435 339.602509,155.283249 
	C326.771057,155.806030 314.123413,157.932755 301.422241,159.535889 
	C291.692963,160.763901 282.065582,162.746063 272.380249,164.320679 
	C265.991943,165.359253 265.523773,166.213181 265.516266,172.516235 
	C265.483856,199.644196 265.481506,226.772217 265.518494,253.900162 
	C265.526733,259.937073 265.923981,260.004089 271.847565,259.245544 
	C279.583405,258.255005 287.048737,255.479538 295.372009,255.882935 
	C298.911377,257.447449 297.223938,259.601440 296.421692,261.445984 
	C293.166046,268.931549 289.515717,276.234833 285.491058,283.330933 
	C283.345459,287.113983 281.626221,291.077454 279.787140,294.992401 
	C276.302155,302.411041 274.065491,302.546112 268.530701,296.223938 
	C259.211700,285.579132 248.574463,276.145508 239.698624,265.080109 
	C238.970261,264.172058 237.930069,263.568237 236.590515,262.783997 
	C233.437943,260.762604 230.211716,261.605957 226.763550,261.161377 
	C226.031204,261.026276 225.650879,261.014099 225.403809,260.822845 
	C216.533875,253.956955 206.515671,253.297409 195.727646,254.257797 
	C185.834946,255.138474 175.791351,254.012100 165.469727,255.401306 
	C163.103714,253.221161 163.651901,250.608444 163.644318,248.180084 
	C163.590820,231.062485 163.634125,213.944626 163.606522,196.826920 
	C163.597672,191.334290 163.234344,191.111923 158.529602,194.019638 
	C148.303284,200.339996 138.796158,207.473404 131.378738,217.158279 
	C125.420662,224.937729 121.433868,233.229813 122.350060,243.335602 
	C122.559052,245.640793 122.441818,247.987625 122.035324,250.712494 
	C121.387009,252.724487 121.413239,254.383713 121.414291,256.055115 
	C121.431999,284.195374 121.514862,312.336090 121.383522,340.475739 
	C121.326614,352.665833 125.970207,362.677551 134.025757,371.555115 
	C148.158661,387.130127 166.174545,396.641785 185.082123,404.810852 
	C189.584930,406.756287 190.537170,406.051239 190.551315,400.872894 
	C190.607239,380.392242 190.571960,359.911377 190.574280,339.430603 
	C190.575134,331.937622 190.351364,324.435547 190.655991,316.955048 
	C190.845383,312.304321 189.372040,309.516022 184.835693,307.894806 
	C177.616516,305.314789 170.882126,301.594482 164.094269,298.048492 
	C161.618881,296.755402 158.912186,295.628082 157.739029,292.304504 
	C163.494873,288.138489 163.921524,282.565186 163.651321,276.379517 
	C163.401077,270.650940 162.981277,264.849915 164.268951,258.742828 
	C168.186066,257.249939 188.548676,258.651672 191.130814,260.563538 
	C195.972122,264.148163 201.439407,265.840454 207.659882,266.800049 
	C208.570862,267.007324 209.081543,267.147461 209.962753,267.399048 
	C211.074387,267.690216 211.795425,267.931549 212.817535,268.413635 
	C218.619232,274.923065 222.125183,282.547424 226.570724,289.536621 
	C233.456238,300.361938 241.499054,310.261932 249.109802,320.516724 
	C253.990555,327.093140 259.475769,333.045380 265.500092,338.551361 
	C268.251831,341.066376 271.445343,342.908661 274.903107,344.049316 
	C280.028717,345.740143 284.729279,344.474670 288.834412,340.968170 
	C296.489777,334.429047 302.609344,326.690613 307.375671,317.434570 
	C313.079346,311.515472 316.818054,304.610474 321.386871,298.306854 
	C322.831635,296.313477 324.019440,293.274994 327.789581,295.523987 
	C329.460114,303.842499 329.676361,311.908691 329.436432,319.975220 
	C329.240997,326.546844 330.365601,333.181549 328.329956,340.039978 
	C327.618561,340.642029 327.203552,340.932007 326.707550,341.032196 
	C319.537262,342.480225 319.375702,342.483124 319.562042,349.861145 
	C320.224335,376.087341 318.072205,402.272308 318.515442,428.494324 
	C318.654785,436.738464 318.874786,437.071289 327.220367,437.467957 
	C328.878296,437.546753 330.544525,437.535156 332.546265,438.359863 
	C333.176086,438.823486 333.390137,439.060150 333.814728,439.730377 
	C334.855438,445.579132 335.489655,451.089172 335.414703,456.498108 
	C335.163696,474.606171 337.057098,492.651611 336.615509,510.756500 
	C336.396973,519.716675 338.174774,528.621826 337.588348,537.608459 
	C337.438232,539.908875 337.823242,542.285828 336.231842,544.796875 
z"/>
<path fill="#A5B7CB" opacity="1.000000" stroke="none" 
	d="
M432.590332,441.729584 
	C433.344391,457.045197 433.719025,472.061371 434.075348,487.547668 
	C415.782654,499.710266 397.511230,511.407349 379.226837,523.084106 
	C378.116669,523.793091 376.903748,524.341125 375.384644,525.003540 
	C373.246429,523.986206 372.913147,522.163025 372.598236,520.355652 
	C368.468262,496.649323 364.223785,472.963135 360.076599,449.259827 
	C359.646790,446.803284 359.249115,444.313049 360.997681,441.676941 
	C362.873077,440.547974 364.533081,440.457703 366.199127,440.581390 
	C384.606384,441.948090 403.004333,441.885956 421.414886,440.528137 
	C424.997131,440.263947 428.729706,439.775909 432.590332,441.729584 
z"/>
<path fill="#8A9FAF" opacity="1.000000" stroke="none" 
	d="
M360.600098,441.789185 
	C360.940155,447.627258 362.052582,452.985596 362.999481,458.363922 
	C366.754303,479.691254 370.514313,501.017639 374.288483,522.341492 
	C374.403290,522.990112 374.695374,523.607361 374.967682,524.641052 
	C363.709167,532.392944 351.764404,538.611511 339.633759,544.486267 
	C338.763580,544.907715 337.716675,544.964111 336.353760,545.193115 
	C336.170197,524.586914 335.051605,504.015106 334.292450,483.431763 
	C333.771820,469.316528 333.499634,455.192108 333.133606,440.620972 
	C334.219482,438.931946 335.694824,438.463257 337.186890,438.630768 
	C344.893799,439.495850 352.749908,439.164490 360.600098,441.789185 
z"/>
<path fill="#EEEFEF" opacity="1.000000" stroke="none" 
	d="
M236.270477,261.869751 
	C242.193359,263.049774 243.676102,268.591949 247.211609,271.916504 
	C253.428116,277.762115 259.032928,284.255554 264.948944,290.424866 
	C267.130341,292.699615 269.230347,295.005493 271.154938,297.524261 
	C273.840942,301.039520 275.857849,300.830841 277.587433,296.702820 
	C282.760590,284.356293 290.392609,273.229767 295.248688,260.735992 
	C295.661499,259.673828 296.357758,258.721802 296.961182,257.358093 
	C296.143036,254.734177 297.682312,253.180664 298.811951,251.675919 
	C301.739990,247.775543 303.554840,243.406204 304.936951,238.421539 
	C308.755707,232.306244 311.008118,225.541046 316.641418,221.060318 
	C317.269958,220.560364 317.688049,219.736832 316.419495,218.843536 
	C313.906433,217.234543 312.331940,215.413330 312.526855,212.230865 
	C316.978363,208.395813 318.877625,203.801620 318.655762,198.332138 
	C318.377197,191.465927 313.346161,186.804840 307.076782,187.476883 
	C301.353027,188.090454 297.695160,193.355392 298.447144,199.900497 
	C298.954041,204.312653 300.686066,208.200211 303.641968,211.990051 
	C304.354767,214.308472 304.233185,216.163177 302.626465,218.113617 
	C301.367279,219.004013 300.289032,219.167542 298.805481,219.294830 
	C292.181641,219.763565 291.966278,219.989899 289.260071,228.939148 
	C285.901733,229.327194 284.041656,227.389175 282.717743,225.032120 
	C273.720032,209.012695 275.940430,193.985580 291.366302,182.435043 
	C303.563019,173.302414 322.947174,176.957886 332.873718,189.762131 
	C335.794556,193.529739 337.455322,197.961426 338.011719,202.592026 
	C338.488281,206.558350 340.101776,206.929611 343.230225,205.481445 
	C344.575867,204.858566 345.946533,204.198517 347.864380,204.193314 
	C350.476257,204.846603 350.899261,206.931595 351.784180,208.635223 
	C353.228912,211.416641 355.139862,213.484726 358.972412,213.328430 
	C359.768890,213.666031 360.112396,214.009445 360.448364,214.807617 
	C358.634125,219.686371 355.086090,223.057373 352.302216,226.938843 
	C343.918091,238.628342 341.424316,250.553162 349.177979,263.651031 
	C353.752594,271.378693 358.355743,279.092743 363.113831,286.700928 
	C367.275208,293.354950 371.201233,300.081635 373.880554,307.466919 
	C375.953796,313.181549 381.293121,314.758240 385.962524,317.098297 
	C387.814117,318.026184 388.861969,316.507721 389.697235,314.833588 
	C394.117950,305.972961 393.459961,297.501740 388.003723,289.321472 
	C382.540588,281.130920 376.579956,273.226624 369.147156,266.828552 
	C354.967560,254.622986 353.022247,239.777466 358.208038,222.958603 
	C358.993378,220.411438 360.034973,217.961380 361.376007,215.232361 
	C362.521149,213.993195 363.730682,213.643478 365.308655,213.252625 
	C370.989716,216.269379 374.808441,213.400406 378.774506,210.160568 
	C383.445374,206.345032 387.972992,202.492081 390.927246,196.689102 
	C393.918304,195.268112 396.155579,196.811249 398.857788,197.845367 
	C401.759857,199.091293 404.502869,199.470520 407.519470,200.258911 
	C414.362213,206.252747 422.478058,209.275070 430.119629,213.120026 
	C435.463165,215.808716 440.708618,218.609955 444.730225,223.733826 
	C444.847504,227.204071 446.864502,229.623199 448.159119,232.268997 
	C455.030121,246.311050 461.977783,260.315857 468.957947,274.304108 
	C472.779694,281.962860 476.653442,289.597321 480.629120,297.176971 
	C482.858246,301.426819 486.690155,303.900452 490.758636,306.310333 
	C503.649536,313.945923 516.345154,321.910522 529.145630,329.699768 
	C535.349426,333.474823 541.618652,337.142487 548.036987,341.189514 
	C548.893738,343.406311 547.648193,344.723602 546.731934,346.037537 
	C544.104248,349.805695 542.498779,353.929321 541.915588,358.852753 
	C541.159607,361.371643 541.536499,363.703278 540.640381,366.199341 
	C539.675171,366.903809 538.917480,367.851471 537.833069,367.086334 
	C528.356689,360.400146 517.159241,357.265594 506.869385,352.255737 
	C503.195740,350.467133 500.092804,347.310547 495.338440,346.988129 
	C493.296051,346.350616 492.868896,344.879395 492.792450,343.386780 
	C492.602936,339.685120 490.429382,339.070923 487.365906,339.656525 
	C484.762848,340.154053 482.153870,340.552979 479.124573,340.071686 
	C470.580017,336.642639 462.880585,332.280609 455.918091,326.970795 
	C450.811401,323.076233 447.738678,317.049774 443.812836,311.927490 
	C440.003326,306.957031 436.859314,301.425537 431.670227,297.094788 
	C429.004211,287.294678 422.662018,279.683777 418.781036,270.831024 
	C421.160339,289.386688 424.050842,307.844116 426.550751,326.355804 
	C426.708344,327.522736 427.331207,328.547272 427.772522,330.054932 
	C427.163391,334.963165 429.084442,339.560974 427.147766,344.392487 
	C424.591278,346.536499 421.890228,346.499939 419.225769,346.534454 
	C394.907166,346.849274 370.643982,345.755066 346.412079,343.746552 
	C342.099579,343.389130 337.765625,343.318237 333.482758,342.601227 
	C331.684174,342.300110 329.796753,342.311584 328.206970,340.398346 
	C327.992004,329.836975 328.143311,319.694946 327.938568,309.560150 
	C327.833282,304.349091 327.093140,299.150818 326.533447,293.456268 
	C325.978424,283.659637 324.700348,274.411377 324.488922,265.274506 
	C318.981750,282.454254 314.966370,300.273438 308.260437,317.636536 
	C304.180511,327.199188 297.848419,334.578186 290.411011,341.114136 
	C282.541962,348.029449 272.701996,347.372498 265.018585,340.016693 
	C252.677307,328.201752 242.792648,314.451050 232.791275,300.732941 
	C225.577972,290.839081 219.550385,280.230255 213.027161,269.544250 
	C214.718094,267.060181 217.238083,267.892548 219.431488,267.540833 
	C222.542542,267.041962 225.569901,266.296417 228.783264,264.832092 
	C231.403992,263.784424 233.601181,262.689178 236.270477,261.869751 
z"/>
<path fill="#DFDFE0" opacity="1.000000" stroke="none" 
	d="
M327.551086,339.982666 
	C331.471985,341.887451 335.503632,341.529266 339.121552,341.744049 
	C351.966492,342.506683 364.792572,343.617096 377.659790,344.175018 
	C391.724365,344.784821 405.772644,344.932312 419.835114,345.003204 
	C422.001556,345.014130 424.142700,345.008453 426.584656,344.053345 
	C432.204376,341.107391 438.058533,342.265594 443.532410,341.861755 
	C453.617981,341.117706 463.655334,340.104553 473.680847,338.863922 
	C474.855225,338.718597 475.991516,338.924988 477.596619,339.019897 
	C481.543060,339.089233 484.979431,338.824829 488.431091,338.089752 
	C492.029724,337.323395 494.751373,338.119598 494.060089,342.852600 
	C493.902985,343.928284 494.432983,345.104370 494.802856,346.605713 
	C494.157104,348.488159 493.963135,350.102142 493.998657,351.797058 
	C494.523926,376.858215 492.189728,401.886871 493.077545,426.943268 
	C493.268982,432.345947 491.567749,434.516052 486.080017,435.284088 
	C468.759674,437.708160 451.528564,440.789215 433.510254,441.048279 
	C432.219208,440.398743 431.752838,439.459412 431.755615,438.468353 
	C431.774139,431.836914 430.579224,425.265411 430.920166,418.209106 
	C433.064636,413.279510 437.315125,416.659454 440.021606,415.300262 
	C437.577301,415.849121 435.015594,415.333771 432.098175,414.521912 
	C429.750244,412.086060 429.627563,409.725830 431.508881,406.937164 
	C434.704529,405.317322 437.748352,404.913300 440.942657,404.970734 
	C446.526489,405.071136 452.129181,405.321320 455.990662,404.170868 
	C449.278320,405.788971 440.746063,404.425201 431.985413,405.294373 
	C430.255890,402.423798 429.650177,399.657745 430.429962,396.322388 
	C433.484772,394.516571 436.547180,393.880585 439.714294,394.030701 
	C446.371338,394.346344 452.935669,393.504730 457.849304,392.898163 
	C450.108887,394.289825 440.593201,393.980103 430.802124,394.123108 
	C429.186432,391.209351 429.339081,388.517303 430.351532,385.399078 
	C437.497009,383.146790 444.513641,382.635437 452.021057,383.395599 
	C454.268555,381.533508 456.621735,382.107666 458.458374,382.021240 
	C456.803406,382.207031 454.595154,381.399933 452.487335,383.255981 
	C448.210052,382.651276 444.244476,382.834381 440.335480,383.488373 
	C432.802765,384.748627 425.217743,382.851746 417.317688,383.954041 
	C414.784332,382.326904 412.302887,382.800262 410.173706,383.427216 
	C406.293884,384.569641 402.498138,384.374542 398.291016,383.710632 
	C395.569702,381.915527 394.316162,379.284790 392.485779,377.149811 
	C377.651123,359.846527 351.200623,361.996399 339.521301,381.489624 
	C338.608093,383.013763 338.066437,384.924683 335.628357,385.481079 
	C331.967651,385.095612 332.960846,387.357056 332.996674,389.059052 
	C333.302521,403.605347 334.989777,418.105682 334.446960,432.680084 
	C334.373322,434.656586 334.567322,436.673706 333.241394,438.790527 
	C328.831177,438.643494 324.702759,439.378601 320.558624,438.434143 
	C317.668213,437.775452 316.987671,436.497620 316.954376,433.720215 
	C316.590363,403.370667 318.712433,373.051086 317.996552,342.700623 
	C317.933136,340.011749 318.420624,338.520447 321.689362,339.646362 
	C323.340942,340.215271 325.296051,339.903107 327.551086,339.982666 
z"/>
<path fill="#DDDDDD" opacity="1.000000" stroke="none" 
	d="
M628.263489,304.792725 
	C626.053101,305.201965 624.422058,304.379944 622.904785,303.314728 
	C609.917603,294.197021 595.453064,287.983002 580.808228,282.207489 
	C577.678650,280.973267 576.930298,279.382538 576.939026,276.336334 
	C577.024353,246.504654 577.066345,216.672272 576.915588,186.841110 
	C576.890747,181.943344 578.167114,181.800278 582.327637,183.517151 
	C600.293701,190.931030 617.768555,199.125732 633.058350,211.400620 
	C648.001160,223.396957 657.035950,238.221451 655.961060,258.500732 
	C654.084717,261.162354 653.313538,263.949249 652.172424,266.508972 
	C647.981201,275.910858 641.862427,284.033264 635.176270,291.673553 
	C631.797485,295.534515 628.787964,299.227448 628.263489,304.792725 
z"/>
<path fill="#6AC3AC" opacity="1.000000" stroke="none" 
	d="
M157.917297,291.816162 
	C164.500504,298.210785 172.766983,301.126495 180.555695,304.668304 
	C191.872162,309.814270 192.010666,309.467621 192.011047,321.934906 
	C192.011887,349.086975 192.012238,376.239105 192.076599,403.391052 
	C192.084305,406.641418 192.176163,409.134338 187.595764,407.222107 
	C166.866226,398.567932 147.040619,388.541168 131.927338,371.250580 
	C124.233879,362.448700 119.812172,352.416931 119.926765,340.407227 
	C120.195366,312.258575 120.138847,284.106873 120.240059,255.956528 
	C120.245392,254.476425 120.492592,252.997223 120.954811,251.258026 
	C122.060776,250.966553 122.451141,251.469238 122.884491,252.380814 
	C123.197304,253.308578 123.362381,253.940582 123.747269,254.850632 
	C124.935791,257.449158 125.516670,259.963043 127.293221,262.287659 
	C127.835892,263.142700 128.133469,263.745453 128.625000,264.619812 
	C130.324738,267.349487 132.059387,269.641174 134.206055,272.039856 
	C134.768936,272.592407 135.087494,272.912903 135.650543,273.473633 
	C142.228348,280.816101 149.682205,286.541626 157.917297,291.816162 
z"/>
<path fill="#E6E6E6" opacity="1.000000" stroke="none" 
	d="
M349.323425,204.884399 
	C346.048798,204.876907 343.519928,206.553223 341.209534,207.750092 
	C337.318756,209.765686 337.148193,208.328247 336.955078,205.066574 
	C336.039703,189.605148 324.222656,180.805878 313.053986,179.174973 
	C298.761414,177.087875 288.095215,182.967590 281.345551,196.109100 
	C276.192444,206.142105 279.418030,222.247757 288.804626,228.880157 
	C289.253296,229.137665 289.383057,229.258392 289.653625,229.602203 
	C289.962708,230.130798 290.147278,230.425980 290.543945,230.891418 
	C290.882080,231.181747 291.027802,231.289505 291.407288,231.547150 
	C291.966644,231.901138 292.286469,232.113983 292.845886,232.514374 
	C293.405090,232.970047 293.709869,233.255920 294.235199,233.782196 
	C298.059662,235.475266 302.440643,234.397812 305.765350,237.716736 
	C305.446442,245.235229 300.733185,250.504425 297.137390,256.683044 
	C287.157013,256.997101 277.768768,259.962494 268.174500,261.552734 
	C264.948547,262.087402 263.964203,261.498138 263.969940,258.297455 
	C264.023682,228.354660 264.021088,198.411682 263.967590,168.468872 
	C263.962585,165.671249 264.877838,164.367584 267.803741,163.814774 
	C281.743958,161.180847 295.690155,158.629593 309.790497,156.980530 
	C319.959534,155.791245 330.042969,153.875961 340.346069,153.843460 
	C342.806061,153.835678 345.377533,152.923370 345.257080,149.052414 
	C347.803864,149.939255 347.162262,152.323196 347.314026,154.381714 
	C347.753296,160.340042 348.065460,166.300858 349.940613,172.055740 
	C351.438904,176.653946 354.208832,179.474075 359.670654,179.561646 
	C361.648712,184.118698 358.897705,187.867188 358.141479,192.289703 
	C357.303162,194.498276 356.708588,196.389465 355.800720,198.548141 
	C353.867737,201.063950 352.059448,203.217239 349.323425,204.884399 
z"/>
<path fill="#E6E6E6" opacity="1.000000" stroke="none" 
	d="
M444.990570,223.522430 
	C440.470490,222.323196 437.789795,217.989365 433.258972,216.176285 
	C428.138031,214.127029 423.338501,211.289230 418.308380,208.993347 
	C414.433899,207.224960 411.401886,204.351227 408.032898,201.493073 
	C409.052399,199.834946 410.385895,200.528168 411.934906,200.698929 
	C407.863403,199.475922 403.774872,200.447433 399.672455,199.003815 
	C396.631104,199.046799 394.618073,196.519379 391.420898,197.005661 
	C387.905273,197.260696 386.697418,194.922745 385.210297,192.392548 
	C384.959869,190.150421 385.352295,188.285797 387.425964,188.229309 
	C396.296692,187.987717 405.118744,188.546707 413.828247,190.176788 
	C404.614960,188.383194 395.217987,188.331863 385.478088,187.630051 
	C382.623932,183.781494 383.513824,179.441681 382.782379,175.438156 
	C382.041840,171.384796 381.885986,167.197739 381.273651,163.119736 
	C380.651184,158.974380 380.822174,155.571945 384.924103,153.338928 
	C385.781830,152.872025 386.203583,151.840149 387.011169,150.664154 
	C387.492279,150.130402 387.713898,149.943909 388.368347,149.719086 
	C389.192841,152.293533 391.190765,152.068329 393.012543,151.985123 
	C407.988617,151.301025 422.894012,153.433792 437.869019,153.057953 
	C444.498932,152.891541 444.999481,153.612000 444.999786,160.082138 
	C445.000763,181.073029 444.995544,202.063919 444.990570,223.522430 
z"/>
<path fill="#122638" opacity="1.000000" stroke="none" 
	d="
M122.363380,253.017273 
	C121.951233,252.324066 121.846741,251.800278 121.512344,251.137482 
	C119.263573,241.105438 120.982643,231.795074 126.005608,223.147156 
	C135.002869,207.656769 149.015350,197.877670 164.890244,188.926117 
	C164.890244,211.241516 164.890244,232.654785 164.953583,254.533127 
	C165.616348,255.678467 165.741547,256.456146 165.246277,257.646271 
	C164.950867,265.380554 164.465088,272.810699 164.993393,280.168030 
	C165.395554,285.768372 164.078369,289.679535 158.387131,291.949768 
	C148.933838,288.384888 141.926941,281.841492 135.290344,274.441620 
	C135.500900,273.005646 136.715042,272.770691 137.394760,271.821075 
	C136.508545,272.494873 135.681549,272.874664 134.395676,272.958313 
	C131.120453,271.291077 129.823715,268.261932 128.040253,265.282349 
	C129.672714,261.515015 133.472885,261.068878 135.842697,259.084015 
	C133.220230,260.206879 130.849594,262.377838 127.518646,263.299164 
	C124.417572,261.444885 124.232109,258.244873 122.949173,255.228348 
	C126.068741,249.851089 131.655106,248.364868 135.809036,245.756104 
	C131.372086,247.328827 127.391350,250.932587 122.363380,253.017273 
z"/>
<path fill="#D5D7DA" opacity="1.000000" stroke="none" 
	d="
M431.606018,416.245972 
	C432.087494,424.334900 433.595703,432.178894 433.030396,440.592468 
	C433.049133,441.066925 433.024231,441.548981 432.996979,441.789001 
	C409.256775,442.616089 385.543945,444.052887 361.374207,442.084595 
	C351.952667,441.434235 342.987518,440.738647 333.586609,440.106628 
	C333.105347,439.989929 333.059875,439.809692 332.976685,439.354004 
	C333.751617,423.390411 331.999054,407.754578 331.949463,392.082489 
	C331.942780,389.975616 331.258911,387.878876 331.036163,385.761902 
	C330.895874,384.428650 331.033722,382.937714 332.569550,382.459290 
	C334.310486,381.917053 334.634216,383.691101 335.738586,384.803894 
	C337.364929,386.776306 336.183594,388.499634 335.907013,390.243225 
	C334.243805,400.728424 335.595245,410.489014 343.059875,419.117401 
	C352.532166,431.592194 370.412567,434.301514 384.858459,425.654175 
	C387.262512,424.215149 389.814484,422.897003 391.228851,419.783630 
	C399.428009,410.003937 401.911743,399.428162 397.962494,387.528198 
	C397.546661,386.275116 397.154205,384.994080 397.786285,383.326050 
	C402.331360,382.190155 407.154785,384.874207 411.036560,381.108490 
	C412.028748,384.226715 415.081451,378.545166 415.970398,382.557678 
	C420.722595,384.170654 425.737030,382.723877 430.704224,384.678162 
	C430.997986,387.604980 431.000305,390.268280 431.007111,393.371765 
	C427.075806,396.608978 423.046875,393.138702 419.849213,394.011047 
	C422.840668,394.212097 426.548309,394.928253 430.620758,395.289307 
	C431.289917,398.274902 431.645599,401.117310 432.006561,404.382080 
	C427.770538,407.563354 423.408203,404.434723 419.703339,405.069611 
	C423.212860,405.756622 427.398712,405.561371 431.730896,406.649200 
	C431.337433,409.165222 430.809326,411.448090 431.939087,414.146790 
	C426.907227,416.689850 421.650055,414.267670 417.514038,415.055542 
	C421.495514,415.007874 426.386780,415.526062 431.606018,416.245972 
z"/>
<path fill="#C08777" opacity="1.000000" stroke="none" 
	d="
M388.271606,149.280579 
	C388.207764,152.158493 387.452698,154.665298 385.077087,155.366699 
	C381.647156,156.379410 382.081726,158.349503 382.412140,160.985825 
	C383.458496,169.334229 384.251709,177.714355 385.191437,186.531143 
	C386.214020,188.503403 385.206207,190.128708 385.472290,192.084534 
	C380.084259,199.657684 372.477539,203.229507 364.007751,204.661499 
	C360.561462,205.244141 357.520905,202.570328 355.154449,199.364868 
	C354.573334,196.973969 356.079529,195.359924 356.440308,193.258789 
	C360.547546,187.054749 364.968292,181.477692 369.302185,175.177780 
	C366.022583,176.718613 363.599915,178.850784 360.392151,180.056427 
	C354.011444,181.041183 351.249268,179.514389 349.106049,173.717865 
	C346.205139,165.871948 346.218750,157.604721 345.550354,149.025482 
	C345.554230,145.686203 345.746796,142.735184 345.989563,139.372833 
	C345.850128,138.028748 345.798798,137.084564 345.797241,135.768585 
	C345.789703,134.896820 345.812378,134.392990 345.898102,133.496552 
	C347.911194,126.929588 348.558868,126.516273 355.103271,127.528046 
	C358.444092,127.555740 361.379333,127.653061 364.692139,127.536209 
	C375.231567,126.181656 376.303619,127.228050 374.675720,137.417160 
	C374.166260,140.605957 375.088715,143.619446 375.277740,146.716827 
	C375.345001,147.819427 376.074310,148.521881 377.491760,147.496094 
	C377.747070,146.999100 377.838684,146.791763 378.067230,146.267715 
	C378.388580,145.515320 378.577087,145.081406 378.923584,144.311600 
	C379.445496,143.284088 379.953339,142.729019 381.014282,142.210358 
	C386.507782,142.526077 387.750946,143.731430 388.271606,149.280579 
z"/>
<path fill="#EEEFEF" opacity="1.000000" stroke="none" 
	d="
M627.996460,305.512451 
	C627.313232,299.936890 629.150879,296.223328 632.837708,292.372955 
	C641.201294,283.638367 648.041809,273.667847 652.721680,262.390137 
	C653.293945,261.011108 653.440735,259.446350 655.604065,259.009460 
	C655.967712,267.336121 655.976624,275.717255 655.973145,284.569397 
	C645.647217,293.506134 641.462585,305.419586 637.517029,317.524872 
	C635.088013,324.977295 635.235718,332.597046 635.306946,340.255829 
	C635.346619,344.526489 636.688721,348.085999 640.692566,350.689758 
	C643.918762,352.276581 646.447388,351.085114 648.978760,349.773376 
	C650.695068,348.883911 652.120422,347.282593 654.621826,347.723358 
	C656.411133,365.462402 648.190063,378.277069 634.963318,388.572052 
	C633.248047,389.907166 632.146851,393.307678 629.698059,392.142578 
	C627.901428,391.287811 629.559021,388.079773 628.802979,386.093262 
	C627.757690,383.347168 628.013794,380.533569 628.011536,377.729004 
	C627.992249,353.811340 627.996094,329.893707 627.996460,305.512451 
z"/>
<path fill="#122638" opacity="1.000000" stroke="none" 
	d="
M381.235779,142.626648 
	C380.487000,143.386307 380.028107,143.944885 379.344116,144.787445 
	C379.229553,145.236618 379.340027,145.401810 379.168091,145.662399 
	C378.836548,145.947479 378.787415,146.137177 378.593597,146.582703 
	C375.773804,149.632889 374.727234,147.852341 374.471741,145.222610 
	C374.105927,141.457611 374.306946,137.722672 374.875153,133.912186 
	C375.948639,126.713219 373.472473,124.410339 366.231934,128.069427 
	C362.621887,129.241623 359.313660,128.945496 355.585388,128.503021 
	C349.435913,125.235413 347.794128,126.193771 346.663208,133.693253 
	C346.748230,134.427887 346.705658,134.847107 346.552063,135.563232 
	C345.947723,137.144119 345.516510,138.494095 343.528442,138.137512 
	C342.300842,137.887650 341.342041,137.718094 340.212555,136.593277 
	C344.683289,134.364731 343.902283,132.010498 341.015076,128.628159 
	C337.793640,124.854225 339.089813,118.805878 343.288086,115.945778 
	C346.576813,113.705315 348.711182,110.779373 350.618439,107.390305 
	C355.230682,99.194496 365.816833,98.671364 371.046021,106.333076 
	C373.511810,109.945953 376.044861,112.121483 380.933807,110.524635 
	C384.304626,109.423637 386.478729,111.788300 386.060211,115.208160 
	C385.569855,119.215477 386.987610,121.709755 390.197052,123.959778 
	C393.859253,126.527237 393.578125,130.394913 391.593170,133.762115 
	C389.991730,136.478790 389.307526,139.169708 389.319519,142.572693 
	C388.168091,144.063019 386.903900,144.041519 385.871094,143.122498 
	C384.500916,141.903244 383.114868,141.778778 381.235779,142.626648 
z"/>
<path fill="#DFDFE0" opacity="1.000000" stroke="none" 
	d="
M641.243408,351.788757 
	C635.962585,350.395660 634.350830,346.492676 634.000793,341.684479 
	C632.602417,322.476868 638.357300,305.349823 649.184875,289.738464 
	C650.655090,287.618744 652.136292,285.197510 655.598145,285.032776 
	C654.616516,288.989807 655.078308,293.077179 655.007996,297.583801 
	C652.096924,301.173309 648.892578,304.161316 650.106873,309.443726 
	C650.679626,313.403412 649.763672,317.109436 651.086426,320.987915 
	C651.494141,321.729004 651.661377,322.178101 651.817993,322.996338 
	C651.691772,325.030029 652.389709,326.369385 653.769897,327.769379 
	C654.272766,328.499359 654.535156,328.993134 654.889160,329.751221 
	C652.698792,335.381042 652.698792,335.381042 648.480225,332.150177 
	C644.168884,337.913879 643.498840,344.975128 641.243408,351.788757 
z"/>
<path fill="#C08777" opacity="1.000000" stroke="none" 
	d="
M165.382172,258.074951 
	C164.908432,257.227234 164.816299,256.472717 164.870544,255.358215 
	C170.245529,252.951797 175.763916,253.534073 181.175781,253.301590 
	C189.935226,252.925308 198.716629,252.959579 207.462311,252.403931 
	C212.300262,252.096558 216.079407,254.014465 219.929138,256.394592 
	C222.009445,257.680725 223.781967,259.550812 226.679276,260.106293 
	C228.165527,261.388794 229.176849,262.702911 229.970612,264.455017 
	C225.416611,269.363708 219.452408,268.479187 213.425415,269.116913 
	C212.350616,269.034637 211.721268,268.869476 210.768250,268.761475 
	C210.087646,268.810120 209.768265,268.696320 209.261566,268.343933 
	C202.231613,267.276276 195.565445,265.952271 190.137253,261.277863 
	C188.497772,259.866058 186.627472,259.716034 184.544785,259.789459 
	C178.229034,260.012115 171.894867,260.188629 165.382172,258.074951 
z"/>
<path fill="#C08777" opacity="1.000000" stroke="none" 
	d="
M541.499512,359.665527 
	C540.602417,352.446625 544.621216,347.403870 548.149719,341.831177 
	C552.711487,339.276245 556.591431,336.132294 560.448120,332.985260 
	C562.666748,331.174896 564.582214,330.766510 567.112854,332.570374 
	C573.605835,337.198364 580.255737,341.606171 586.846497,346.096741 
	C587.815918,346.757233 589.062988,347.441956 588.642334,348.764832 
	C588.132080,350.369293 586.498169,350.231415 585.226196,350.019623 
	C580.809326,349.284210 576.327881,348.717773 572.035095,347.505890 
	C565.397827,345.632172 560.334961,347.405670 556.303955,352.881683 
	C553.658264,356.475830 550.123901,358.878632 545.376831,359.998047 
	C543.884888,360.962830 542.778320,360.914062 541.499512,359.665527 
z"/>
<path fill="#1B2B3B" opacity="1.000000" stroke="none" 
	d="
M308.358124,317.905426 
	C313.399963,299.293732 318.776154,280.656311 324.152313,262.018921 
	C325.355072,272.189392 327.983795,282.185486 326.509338,292.722534 
	C320.515503,301.270416 314.603973,309.575073 308.358124,317.905426 
z"/>
<path fill="#D5D7DA" opacity="1.000000" stroke="none" 
	d="
M641.238770,352.297791 
	C641.173950,343.749695 644.039795,336.411346 648.668091,329.012634 
	C649.874573,330.925598 650.726685,332.276764 651.579346,333.628784 
	C653.542603,333.204468 652.854858,330.848755 654.681885,330.164246 
	C654.977051,335.676697 654.973206,341.337860 654.948242,347.457458 
	C652.191467,349.345093 649.471985,350.806305 646.714294,352.191467 
	C645.050598,353.027161 643.304382,353.415619 641.238770,352.297791 
z"/>
<path fill="#E6E6E6" opacity="1.000000" stroke="none" 
	d="
M504.673584,188.370514 
	C521.934570,191.509888 538.545471,195.410767 554.432800,202.080383 
	C520.568054,192.887436 486.344421,185.521210 451.455109,181.329468 
	C469.346344,181.853195 486.830261,184.886612 504.673584,188.370514 
z"/>
<path fill="#F6CE6F" opacity="1.000000" stroke="none" 
	d="
M529.062439,180.747772 
	C527.625366,173.946747 531.183289,169.157120 536.089905,170.842392 
	C539.034546,171.853806 541.506592,173.493362 541.680969,177.087326 
	C541.852966,180.632660 539.798035,182.473190 536.823547,183.841553 
	C533.268188,185.477188 531.194031,183.542816 529.062439,180.747772 
z"/>
<path fill="#F6CE6F" opacity="1.000000" stroke="none" 
	d="
M518.130554,380.243469 
	C523.127930,376.738098 526.659729,376.994080 528.791504,380.966064 
	C530.580505,384.299316 529.978943,387.405090 527.138855,389.932770 
	C524.617554,392.176758 522.079163,391.871979 519.562134,389.788635 
	C516.362488,387.140198 514.839661,384.232025 518.130554,380.243469 
z"/>
<path fill="#F6CE6F" opacity="1.000000" stroke="none" 
	d="
M199.395172,189.424026 
	C204.554642,186.347382 207.522705,186.863693 209.679459,190.732788 
	C211.459900,193.926758 211.095840,196.892044 208.628815,199.369202 
	C206.076218,201.932327 202.920456,200.933197 200.319931,199.545593 
	C197.307510,197.938248 196.602112,195.097137 198.046600,191.893143 
	C198.382553,191.147964 198.769897,190.425980 199.395172,189.424026 
z"/>
<path fill="#E6E6E6" opacity="1.000000" stroke="none" 
	d="
M281.465332,404.662079 
	C267.327881,400.806274 253.007660,399.308868 239.790222,393.513672 
	C263.733093,399.560913 287.966156,403.956848 312.398254,407.828674 
	C309.296570,410.064636 305.919189,408.098022 302.978851,407.701294 
	C299.374603,407.214996 295.705750,407.379822 292.130920,406.578583 
	C288.747620,405.820282 285.291840,405.385620 281.465332,404.662079 
z"/>
<path fill="#6AC3AC" opacity="1.000000" stroke="none" 
	d="
M205.503296,380.428345 
	C203.643677,376.767151 204.358597,373.791351 207.370712,371.821381 
	C209.709869,370.291443 212.555405,370.387146 214.919952,372.036682 
	C217.734238,373.999908 217.390579,377.060242 216.578400,379.762787 
	C215.781006,382.416107 213.400665,383.394257 210.686279,383.537903 
	C208.396759,383.659027 206.994003,382.326202 205.503296,380.428345 
z"/>
<path fill="#D5D7DA" opacity="1.000000" stroke="none" 
	d="
M175.704742,245.059082 
	C174.140900,240.601746 176.110443,237.848679 179.646362,236.398376 
	C182.437881,235.253403 185.244720,235.818039 186.915756,238.882156 
	C188.648682,242.059738 188.463440,245.119385 185.671494,247.438782 
	C182.430145,250.131531 179.112991,249.278412 175.704742,245.059082 
z"/>
<path fill="#D5D7DA" opacity="1.000000" stroke="none" 
	d="
M594.347046,389.391907 
	C593.698425,385.557251 594.665344,382.475647 598.049622,381.310211 
	C600.636292,380.419525 603.653015,380.372498 605.599243,383.310944 
	C607.636719,386.386993 607.320496,389.376770 604.875610,391.853821 
	C602.491150,394.269623 597.680115,393.129883 594.347046,389.391907 
z"/>
<path fill="#6AC3AC" opacity="1.000000" stroke="none" 
	d="
M249.976257,216.271790 
	C252.234131,219.825485 253.029373,223.086304 249.207993,225.619431 
	C246.469543,227.434662 243.706497,226.833405 241.531540,224.545135 
	C239.375504,222.276749 239.605865,219.414520 241.342209,217.208618 
	C243.540192,214.416245 246.575577,213.953812 249.976257,216.271790 
z"/>
<path fill="#D5D7DA" opacity="1.000000" stroke="none" 
	d="
M541.963501,226.046616 
	C544.191040,222.262543 547.544617,222.148239 550.424500,223.548035 
	C553.528564,225.056732 553.671997,228.644989 552.743530,231.506973 
	C551.863831,234.218246 549.222107,235.293625 546.285828,234.999573 
	C542.397583,234.610199 540.615601,231.174728 541.963501,226.046616 
z"/>
<path fill="#6AC3AC" opacity="1.000000" stroke="none" 
	d="
M600.607605,330.509827 
	C601.884949,332.451202 602.132874,334.303558 601.417786,336.041595 
	C600.102417,339.238159 597.517212,340.619476 594.197144,339.670135 
	C591.079834,338.778748 589.521729,336.390778 590.335449,333.167023 
	C591.215332,329.681519 593.556152,327.775940 597.338257,328.606201 
	C598.412415,328.842010 599.356201,329.672241 600.607605,330.509827 
z"/>
<path fill="#6AC3AC" opacity="1.000000" stroke="none" 
	d="
M470.273468,230.163727 
	C472.061707,226.345612 474.776337,225.403336 478.151764,227.027618 
	C481.484039,228.631134 481.662262,231.779694 480.693390,234.718689 
	C479.715698,237.684601 477.008240,238.444016 474.172577,237.707047 
	C470.482422,236.748032 469.203400,234.181717 470.273468,230.163727 
z"/>
<path fill="#E9EEED" opacity="1.000000" stroke="none" 
	d="
M536.507080,400.681030 
	C532.073975,400.922607 528.257019,402.076202 524.480286,403.326752 
	C522.113464,404.110504 519.866821,404.345276 517.590637,402.991943 
	C528.657288,400.409576 539.709106,398.039246 550.600586,395.020966 
	C556.171204,393.477203 561.665100,391.656281 567.239563,390.127777 
	C568.296753,389.837891 569.979980,388.229492 570.639832,390.145172 
	C571.323364,392.129669 569.178528,391.773010 568.036438,392.153107 
	C557.822632,395.552704 547.361328,398.031769 536.507080,400.681030 
z"/>
<path fill="#E9EEED" opacity="1.000000" stroke="none" 
	d="
M214.585846,206.662323 
	C206.096481,210.195267 197.963959,213.573059 189.831436,216.950851 
	C189.579117,216.474167 189.326813,215.997482 189.074493,215.520798 
	C192.899841,213.598770 196.600723,211.355133 200.574615,209.816849 
	C211.188278,205.708389 221.904877,201.862747 232.624191,198.034760 
	C233.783173,197.620865 235.756012,195.867813 236.380249,198.009064 
	C236.938492,199.923904 234.577728,199.790848 233.199432,200.121521 
	C226.898972,201.632996 220.931107,204.100510 214.585846,206.662323 
z"/>
<path fill="#E6E6E6" opacity="1.000000" stroke="none" 
	d="
M556.994141,372.996368 
	C554.237610,373.280029 552.331665,375.836731 548.077087,373.840149 
	C565.960999,367.996338 582.585388,362.322723 598.395874,354.610107 
	C585.826477,363.214172 571.605591,368.083405 556.994141,372.996368 
z"/>
<path fill="#F6CE6F" opacity="1.000000" stroke="none" 
	d="
M305.764069,363.491211 
	C304.071930,367.477509 301.142334,367.445923 298.240143,366.151367 
	C295.763824,365.046753 294.507568,362.702393 295.478088,360.002808 
	C296.544250,357.037109 298.943573,355.623291 302.129486,356.214050 
	C306.097015,356.949677 306.115051,359.986206 305.764069,363.491211 
z"/>
<path fill="#E9EEED" opacity="1.000000" stroke="none" 
	d="
M247.744339,357.124023 
	C239.773911,355.592010 232.744934,352.610870 225.743347,349.458740 
	C242.004379,354.022095 258.321014,358.273468 274.535645,362.930725 
	C265.506500,361.967346 256.795471,359.726959 247.744339,357.124023 
z"/>
<path fill="#E9EEED" opacity="1.000000" stroke="none" 
	d="
M541.837097,253.121979 
	C545.688049,254.173492 549.160278,255.106369 552.804077,257.264679 
	C549.977478,258.783539 547.723877,257.326691 545.924377,256.693909 
	C534.651672,252.730148 523.068848,249.992126 511.475433,247.243622 
	C510.256805,246.954712 507.735687,247.508682 508.375488,245.165863 
	C508.906342,243.221985 510.683563,244.848709 511.747040,245.123901 
	C521.664429,247.690338 531.548279,250.386246 541.837097,253.121979 
z"/>
<path fill="#E9EEED" opacity="1.000000" stroke="none" 
	d="
M228.679947,237.627228 
	C239.739578,234.509964 250.434769,231.538986 261.735382,228.399826 
	C261.072784,231.633057 259.167297,231.588989 257.991272,231.765976 
	C247.933594,233.279602 238.482346,236.882935 228.838028,239.837875 
	C227.526855,240.239609 225.295105,242.228577 224.659027,239.958832 
	C224.071014,237.860580 226.861313,238.229889 228.679947,237.627228 
z"/>
<path fill="#C08777" opacity="1.000000" stroke="none" 
	d="
M651.125305,322.093903 
	C647.602966,320.582214 649.352234,317.576385 649.039612,315.165344 
	C648.808655,313.383911 649.035400,311.543182 649.119202,309.257019 
	C650.892151,304.124023 651.774536,303.700714 654.695435,306.544647 
	C654.886108,309.680145 654.906067,312.492218 654.757996,315.670349 
	C653.592712,316.231201 653.418579,316.942474 653.471802,318.101868 
	C653.424866,318.597168 653.387939,318.793274 653.221558,319.258972 
	C652.496582,320.316864 652.012451,321.183716 651.125305,322.093903 
z"/>
<path fill="#F6CE6F" opacity="1.000000" stroke="none" 
	d="
M491.475189,197.071518 
	C491.169891,199.443481 489.954041,200.590775 487.907715,200.721832 
	C485.827484,200.855057 484.439484,200.101410 484.329346,197.745895 
	C484.216400,195.329483 485.831329,195.199341 487.554688,195.180344 
	C489.040375,195.163971 490.534637,195.172134 491.475189,197.071518 
z"/>
<path fill="#F6CE6F" opacity="1.000000" stroke="none" 
	d="
M612.580444,354.082428 
	C614.550110,351.563873 616.946106,351.717499 618.838623,353.225708 
	C620.669495,354.684723 619.042725,356.554840 617.848389,357.382538 
	C614.410828,359.764984 613.560913,356.739899 612.580444,354.082428 
z"/>
<path fill="#2B2722" opacity="1.000000" stroke="none" 
	d="
M654.900391,306.428802 
	C651.976746,303.220642 650.930420,306.270203 649.393921,308.550232 
	C648.425659,304.023682 650.514832,300.606171 654.632141,298.012421 
	C654.964050,300.690796 654.949341,303.340149 654.900391,306.428802 
z"/>
<path fill="#F6CE6F" opacity="1.000000" stroke="none" 
	d="
M179.597839,280.365631 
	C177.916489,279.160156 176.576553,277.971161 177.952255,276.154480 
	C178.864731,274.949524 180.313492,274.267700 181.879333,274.572998 
	C183.505737,274.890045 183.743423,276.282318 183.667603,277.660461 
	C183.537079,280.032959 181.942352,280.583191 179.597839,280.365631 
z"/>
<path fill="#40474D" opacity="1.000000" stroke="none" 
	d="
M230.277863,264.828522 
	C229.169159,263.278534 226.829651,262.977020 227.006805,260.488831 
	C230.199112,260.048523 233.401093,259.552521 236.491837,261.570068 
	C234.558090,262.734436 233.162674,264.948334 230.277863,264.828522 
z"/>
<path fill="#F6CE6F" opacity="1.000000" stroke="none" 
	d="
M249.051773,420.913300 
	C247.389084,422.926697 245.847641,423.142395 244.281296,421.375000 
	C243.465271,420.454193 243.014343,419.368958 243.831650,418.236786 
	C244.860382,416.811829 246.396194,416.889435 247.879898,417.181305 
	C250.024628,417.603241 249.746643,419.090851 249.051773,420.913300 
z"/>
<path fill="#6AC3AC" opacity="1.000000" stroke="none" 
	d="
M458.340576,163.787354 
	C460.316437,165.867859 460.165833,167.646744 457.787689,168.657410 
	C456.210968,169.327484 454.752228,168.543457 454.459351,166.741165 
	C454.008362,163.965805 455.581116,163.230194 458.340576,163.787354 
z"/>
<path fill="#D5D7DA" opacity="1.000000" stroke="none" 
	d="
M251.479218,184.585999 
	C248.930969,185.143173 246.963318,184.785553 247.296555,182.026581 
	C247.486023,180.457977 248.741516,178.849060 250.730164,179.543442 
	C253.414474,180.480698 253.649689,182.293747 251.479218,184.585999 
z"/>
<path fill="#40474D" opacity="1.000000" stroke="none" 
	d="
M381.341919,142.834473 
	C383.579163,138.110245 385.928711,143.559219 388.840424,142.993042 
	C390.274567,145.022430 388.815765,146.961273 388.856079,149.332275 
	C388.801117,149.680756 388.450623,149.654953 388.276001,149.651154 
	C387.563660,145.898193 386.456390,142.681549 381.341919,142.834473 
z"/>
<path fill="#8A9FAF" opacity="1.000000" stroke="none" 
	d="
M201.304214,324.515076 
	C201.936569,327.483948 200.668640,328.607605 198.201035,328.021027 
	C196.902451,327.712311 195.924133,326.396088 196.544434,324.968781 
	C197.589233,322.564758 199.288254,322.498779 201.304214,324.515076 
z"/>
<path fill="#D5D7DA" opacity="1.000000" stroke="none" 
	d="
M519.009399,260.953918 
	C516.876648,260.636841 515.851501,259.666870 516.311768,257.836884 
	C516.628174,256.578857 517.718384,256.061218 519.012329,256.060242 
	C520.306946,256.059265 521.404541,256.577576 521.710571,257.835754 
	C522.151001,259.646271 521.158142,260.648865 519.009399,260.953918 
z"/>
<path fill="#40474D" opacity="1.000000" stroke="none" 
	d="
M541.070496,359.625061 
	C542.328857,359.571472 543.348755,359.793182 544.690063,360.032532 
	C544.081116,362.376282 542.928101,364.548340 540.695679,366.319092 
	C539.923645,364.311127 539.755615,362.079254 541.070496,359.625061 
z"/>
<path fill="#C08777" opacity="1.000000" stroke="none" 
	d="
M654.013794,327.609406 
	C652.240112,327.466095 650.218506,327.191528 650.635376,324.368591 
	C652.019104,322.820190 651.615051,320.926086 652.779663,319.246033 
	C653.019592,318.979645 652.999939,319.000305 652.990845,319.011261 
	C653.243958,318.848572 653.506165,318.674927 654.180298,318.731537 
	C655.750977,321.806366 654.499390,324.483002 654.013794,327.609406 
z"/>
<path fill="#8A9FAF" opacity="1.000000" stroke="none" 
	d="
M539.688354,413.639557 
	C541.910522,412.730896 543.616699,412.768219 543.819580,415.346039 
	C543.945129,416.941040 542.752319,417.812378 541.359009,417.744690 
	C538.745972,417.617737 538.734619,415.882050 539.688354,413.639557 
z"/>
<path fill="#D5D7DA" opacity="1.000000" stroke="none" 
	d="
M279.936829,393.789062 
	C277.230194,393.316650 276.420166,392.012390 277.843140,389.934967 
	C278.578217,388.861786 280.064850,388.594940 280.961884,389.344757 
	C282.871613,390.941040 282.093964,392.487091 279.936829,393.789062 
z"/>
<path fill="#E6E6E6" opacity="1.000000" stroke="none" 
	d="
M606.475098,350.797974 
	C604.845703,352.626404 603.262207,353.934021 600.834595,353.793243 
	C603.835999,350.122070 604.528564,349.737366 606.475098,350.797974 
z"/>
<path fill="#40474D" opacity="1.000000" stroke="none" 
	d="
M343.583313,138.004440 
	C344.587189,137.844696 345.159515,136.798676 346.199280,135.973450 
	C346.876801,136.717789 346.780975,137.555389 346.192871,138.670837 
	C345.307709,138.688385 344.575684,138.415283 343.583313,138.004440 
z"/>
<path fill="#40474D" opacity="1.000000" stroke="none" 
	d="
M654.569702,318.596069 
	C654.322266,318.934662 654.052490,318.907532 653.382202,318.951294 
	C652.946411,318.016663 652.954285,317.026855 654.265503,316.215424 
	C654.575806,316.767731 654.561584,317.499023 654.569702,318.596069 
z"/>
<path fill="#EEEFEF" opacity="1.000000" stroke="none" 
	d="
M209.216583,268.411835 
	C209.382950,268.279022 209.729233,268.347290 210.260025,268.617126 
	C210.095200,268.750092 209.745834,268.681519 209.216583,268.411835 
z"/>
<path fill="#6AC3AC" opacity="1.000000" stroke="none" 
	d="
M362.137817,215.044220 
	C359.949554,221.381790 357.621490,227.382202 356.955078,233.933319 
	C355.644440,246.817245 359.981323,257.003571 369.660187,265.807983 
	C379.357697,274.629333 388.117706,284.491394 393.037537,297.096008 
	C395.984528,304.646240 392.343414,311.088379 389.821259,317.646484 
	C388.934662,319.951904 386.402008,319.194397 384.606018,318.114380 
	C379.035980,314.764893 373.534790,312.062744 371.184845,304.647705 
	C367.454559,292.877106 359.111908,283.318573 353.054840,272.631592 
	C351.088257,269.161774 349.145966,265.677795 347.145111,262.227814 
	C340.744385,251.191162 342.356934,240.499786 348.723358,230.156006 
	C351.944733,224.922104 355.578857,219.944199 360.061584,215.209015 
	C360.749847,214.591110 361.298248,214.523499 362.137817,215.044220 
z"/>
<path fill="#F9F7F8" opacity="1.000000" stroke="none" 
	d="
M477.834229,338.754456 
	C473.384216,341.596008 468.069519,341.244263 463.106903,341.763672 
	C451.433197,342.985443 439.708618,344.098785 427.465759,344.003174 
	C427.444336,339.564972 424.977570,335.137939 426.955139,330.283752 
	C426.371490,322.854523 428.394073,316.098175 429.093170,309.211304 
	C429.489960,305.301971 429.190094,301.150574 431.753143,297.286926 
	C437.445953,297.097168 437.736023,302.516388 440.338684,305.340454 
	C445.437561,310.873016 449.340607,317.487518 454.017365,323.435059 
	C458.334564,328.925385 465.104492,331.039032 470.726227,334.737061 
	C472.901337,336.167877 475.314667,337.236572 477.834229,338.754456 
z"/>
<path fill="#DDDDDD" opacity="1.000000" stroke="none" 
	d="
M354.724731,199.026779 
	C361.363525,205.247116 367.966400,204.008972 374.654419,199.742966 
	C377.992523,197.613739 381.272675,195.393570 385.176178,193.050446 
	C387.322205,194.164124 388.871063,195.441910 390.721924,196.862411 
	C391.059174,200.315613 388.879456,202.467407 386.856537,204.603363 
	C382.539734,209.161377 377.415955,212.723312 372.232605,216.225723 
	C369.061279,218.368622 368.483429,214.622437 366.185150,213.991135 
	C363.986542,211.496719 363.031921,208.716019 362.627563,205.942871 
	C362.519440,208.604126 360.465637,210.731033 359.471985,213.613434 
	C354.088257,215.115677 352.215607,213.569351 349.137024,205.329437 
	C350.064301,202.369431 352.511475,200.982681 354.724731,199.026779 
z"/>
<path fill="#1B2B3B" opacity="1.000000" stroke="none" 
	d="
M432.023682,296.602356 
	C431.057983,304.356506 429.934906,311.696442 429.043365,319.064392 
	C428.630402,322.477356 428.012970,325.813385 426.968292,329.476562 
	C424.027130,324.502991 424.516724,318.445892 423.603943,312.697845 
	C421.184601,297.462219 419.094543,282.174286 417.759430,266.500092 
	C420.863068,272.323517 424.109070,278.076874 427.020233,283.994995 
	C428.953827,287.925751 432.321259,291.327148 432.023682,296.602356 
z"/>
<path fill="#2B2722" opacity="1.000000" stroke="none" 
	d="
M303.216675,212.283234 
	C297.696320,207.468628 296.950378,201.304367 297.782532,194.891678 
	C298.332886,190.650269 300.838745,187.475769 305.305603,186.721054 
	C310.137604,185.904633 314.635284,186.680939 317.641663,191.122559 
	C321.783112,197.241180 319.941162,207.259827 313.530090,212.065125 
	C310.690948,210.211685 310.557037,209.277435 312.215759,205.365173 
	C314.307678,200.431137 314.316711,200.395355 309.466309,199.172394 
	C307.964935,198.793839 306.287384,197.568329 304.915894,199.323730 
	C303.580231,201.033279 303.615417,202.976318 304.409760,204.948624 
	C305.461456,207.559845 306.887146,210.230652 303.216675,212.283234 
z"/>
<path fill="#A97165" opacity="1.000000" stroke="none" 
	d="
M302.967407,212.598724 
	C305.407745,210.552475 305.211090,208.255508 303.724976,206.246994 
	C301.526093,203.275162 302.712585,200.745590 303.961121,197.967972 
	C304.553528,196.649963 304.991760,195.921188 306.421722,196.825195 
	C306.561890,196.913818 306.701538,197.018585 306.856659,197.065903 
	C309.820984,197.970108 313.959076,197.994537 315.447357,199.993240 
	C317.178894,202.318588 312.849579,204.802277 312.395416,207.791595 
	C312.189972,209.144058 312.035675,210.386780 312.881287,211.880859 
	C313.002991,214.664154 314.472626,216.312469 316.607330,217.898376 
	C316.067230,221.608292 313.012970,223.487137 310.724091,225.922348 
	C309.729187,226.980881 308.088196,226.907944 307.125061,225.838043 
	C305.090179,223.577606 301.989685,222.117935 301.622955,218.311890 
	C302.879822,216.474274 303.803070,214.941010 302.967407,212.598724 
z"/>
<path fill="#DDDDDD" opacity="1.000000" stroke="none" 
	d="
M301.357361,217.966309 
	C302.848206,221.121887 306.003540,222.501648 307.843384,225.036026 
	C309.122375,226.797791 310.186249,225.161011 310.975586,224.223175 
	C312.693237,222.182434 314.343079,220.094147 316.761902,218.322479 
	C318.514587,218.098434 321.265564,218.346649 318.828827,220.369034 
	C313.159668,225.074066 310.643066,231.841629 306.190460,237.711899 
	C301.979370,235.873016 297.111633,237.034897 293.129211,234.235001 
	C295.886597,233.016373 296.801117,231.136551 296.700165,228.263824 
	C296.590637,225.148834 296.258331,221.977173 297.382233,218.585602 
	C298.705414,218.173874 299.821350,218.072601 301.357361,217.966309 
z"/>
<path fill="#A97165" opacity="1.000000" stroke="none" 
	d="
M297.230591,218.281189 
	C297.694794,222.761932 297.725250,227.252090 297.928589,231.734406 
	C298.099030,235.492050 296.081146,234.858963 293.453308,233.899780 
	C293.022095,233.561172 292.909637,233.307312 292.568207,232.961166 
	C291.996857,232.780396 291.649017,232.611252 291.166199,232.114410 
	C290.988434,231.877777 290.797974,231.730377 290.687073,231.777252 
	C289.664734,231.739807 289.544128,231.011383 289.259918,229.992554 
	C289.157959,229.651947 289.230438,229.329346 289.177002,229.173126 
	C289.550629,220.766754 290.903931,218.892685 297.230591,218.281189 
z"/>
<path fill="#4C9C84" opacity="1.000000" stroke="none" 
	d="
M359.447815,214.001495 
	C359.348511,211.180588 359.348511,211.180588 362.725342,205.775574 
	C364.410553,208.099167 365.302765,210.572937 365.856934,213.560791 
	C364.884094,214.358231 363.937775,214.788910 362.695068,215.303223 
	C361.922028,215.251343 361.445282,215.115845 360.600159,214.942352 
	C360.070312,214.622253 359.878357,214.362732 359.447815,214.001495 
z"/>
<path fill="#8A9FAF" opacity="1.000000" stroke="none" 
	d="
M399.549377,199.223633 
	C404.775787,198.827011 410.221222,198.734329 416.229248,200.725586 
	C413.291199,202.679016 410.999908,201.255249 408.373169,201.115875 
	C405.244171,200.592224 402.508911,200.036392 399.549377,199.223633 
z"/>
<path fill="#EEEFEF" opacity="1.000000" stroke="none" 
	d="
M343.367432,420.082428 
	C337.758606,417.323792 336.542236,411.966400 335.135406,407.117310 
	C333.086243,400.054077 333.145264,392.798248 335.964050,385.387878 
	C340.566437,374.680115 348.519684,368.139893 359.152832,365.033600 
	C373.413269,360.867584 389.487305,368.263916 397.873230,382.694641 
	C400.904114,390.875519 402.466156,398.908661 399.924683,407.134857 
	C398.476410,411.822693 396.421265,416.317932 392.306641,419.863617 
	C386.977966,413.962311 379.392975,412.482086 372.561920,408.926514 
	C371.272980,405.425507 371.392120,402.249023 372.547089,398.729950 
	C374.186462,395.896790 377.293030,394.619843 377.909058,391.104980 
	C379.084412,384.596039 376.924042,380.905670 370.774567,378.439728 
	C365.324860,376.254333 361.824768,377.754211 357.600739,384.084991 
	C355.097076,387.837372 356.066345,391.729523 360.908203,396.584839 
	C363.747345,399.766785 363.502228,403.218323 362.943787,407.085266 
	C361.160828,410.602722 357.576874,410.584259 354.961182,412.168304 
	C351.013153,414.559296 347.270325,417.203674 343.367432,420.082428 
z"/>
<path fill="#40474D" opacity="1.000000" stroke="none" 
	d="
M431.363342,395.374390 
	C425.149200,394.967285 419.265442,395.730865 413.574615,393.928802 
	C419.106049,393.928802 424.637451,393.928802 430.590210,393.870361 
	C436.805145,393.557129 442.612518,393.471649 448.388367,392.999847 
	C454.141968,392.529877 459.863892,391.672394 465.661194,391.513916 
	C454.640961,395.038269 443.214966,395.162994 431.363342,395.374390 
z"/>
<path fill="#40474D" opacity="1.000000" stroke="none" 
	d="
M432.394318,406.764038 
	C425.971100,405.646149 419.693848,406.917816 413.738342,404.928253 
	C419.544312,404.928253 425.350250,404.928253 431.584045,404.866333 
	C441.329620,404.354065 450.647339,403.903717 459.965088,403.453400 
	C451.138000,406.535522 441.861633,405.668793 432.394318,406.764038 
z"/>
<path fill="#40474D" opacity="1.000000" stroke="none" 
	d="
M431.446899,384.834351 
	C425.920837,383.407318 420.492462,385.229187 415.732269,383.082336 
	C426.369354,382.513519 436.763885,383.476746 447.102814,382.140625 
	C448.938690,381.903381 450.643372,382.049713 452.490112,383.093079 
	C446.014709,385.106140 438.840729,383.594940 431.446899,384.834351 
z"/>
<path fill="#40474D" opacity="1.000000" stroke="none" 
	d="
M432.327637,416.355713 
	C425.738312,416.429291 419.541748,416.429291 413.345154,416.429291 
	C413.338013,415.845734 413.330841,415.262146 413.323669,414.678589 
	C419.222687,414.678589 425.121674,414.678589 431.480804,414.614044 
	C435.075958,415.182739 438.388489,414.159180 441.969360,415.498383 
	C438.615540,416.802551 435.615997,415.908936 432.327637,416.355713 
z"/>
<path fill="#40474D" opacity="1.000000" stroke="none" 
	d="
M452.917389,382.937744 
	C455.705627,380.141785 459.169647,381.211670 462.466217,381.344421 
	C459.744934,382.832611 456.840607,383.261475 453.319580,382.826477 
	C452.862610,382.891968 452.904388,382.917877 452.917389,382.937744 
z"/>
<path fill="#D5D7DA" opacity="1.000000" stroke="none" 
	d="
M443.449341,416.534607 
	C443.414734,416.477081 443.483948,416.592163 443.449341,416.534607 
z"/>
<path fill="#F9F7F8" opacity="1.000000" stroke="none" 
	d="
M625.162170,249.748077 
	C619.250488,246.266068 613.616211,243.015823 607.981995,239.765579 
	C617.730774,239.702606 643.849915,259.635956 644.434509,267.315552 
	C638.580933,260.379883 632.008728,255.181580 625.162170,249.748077 
z"/>
<path fill="#F9F7F8" opacity="1.000000" stroke="none" 
	d="
M618.334106,257.684631 
	C626.247314,261.981628 633.285400,266.863159 639.427856,272.967316 
	C640.087036,273.622314 641.199463,274.394928 640.359863,275.419189 
	C639.573425,276.378601 638.493042,275.831268 637.788269,275.052307 
	C629.993225,266.437286 619.989685,260.967316 610.007324,255.458908 
	C609.338013,255.089539 608.390503,254.860382 608.573425,253.488464 
	C612.687866,252.532913 614.916077,256.103485 618.334106,257.684631 
z"/>
<path fill="#F9F7F8" opacity="1.000000" stroke="none" 
	d="
M636.065918,242.329742 
	C642.595764,244.211105 645.434082,249.867340 648.943665,254.908539 
	C648.562439,255.273468 648.181274,255.638397 647.800049,256.003326 
	C643.893188,251.572159 639.986328,247.140991 636.065918,242.329742 
z"/>
<path fill="#F9F7F8" opacity="1.000000" stroke="none" 
	d="
M624.966919,232.648438 
	C618.550720,231.134888 613.782104,226.528015 608.364441,222.955261 
	C614.246704,225.461761 620.457153,227.356659 624.966919,232.648438 
z"/>
<path fill="#F9F7F8" opacity="1.000000" stroke="none" 
	d="
M619.170959,273.530457 
	C615.714294,271.182373 611.830688,269.987976 609.569824,266.429199 
	C613.546204,267.630402 617.382996,269.104462 620.365051,272.145111 
	C621.113342,272.908112 620.626160,273.644440 619.170959,273.530457 
z"/>
<path fill="#F9F7F8" opacity="1.000000" stroke="none" 
	d="
M625.013184,232.986511 
	C629.821106,234.223190 633.086487,237.512512 636.040527,241.591095 
	C636.052368,241.949677 636.004456,241.995926 635.980103,242.019836 
	C631.649841,240.181442 628.344910,237.048782 625.127075,233.322861 
	C624.984192,233.021484 625.002441,232.997528 625.013184,232.986511 
z"/>
<path fill="#E9EEED" opacity="1.000000" stroke="none" 
	d="
M137.221466,348.755524 
	C135.735474,349.013977 135.130432,348.302490 134.711288,347.310303 
	C130.758484,337.953247 128.556381,328.333405 131.266464,318.248047 
	C133.830475,308.706207 142.057144,304.972839 151.036163,309.086700 
	C163.556992,314.823242 170.232025,325.598389 175.020493,337.742645 
	C178.336304,346.152039 180.409561,354.873260 177.976700,364.003937 
	C177.069061,367.410400 175.893951,370.678589 172.384201,372.819183 
	C169.450333,367.596771 166.264587,362.863464 161.026672,359.575073 
	C158.814377,358.186249 158.491348,355.088104 157.840424,352.135437 
	C157.676376,350.459717 157.744751,349.178314 158.212967,347.563416 
	C164.871521,338.290466 163.278473,329.047485 154.145645,322.848999 
	C150.792007,320.572906 147.898849,321.905060 147.601883,326.025146 
	C147.385956,329.020660 148.134872,331.981415 149.080185,334.777802 
	C150.648697,339.417786 150.138687,343.539917 146.767761,347.586914 
	C144.992798,349.259979 143.550705,348.287476 142.161285,347.566498 
	C140.285568,346.593079 138.794296,347.011108 137.221466,348.755524 
z"/>
<path fill="#2B2722" opacity="1.000000" stroke="none" 
	d="
M145.680984,348.246033 
	C150.956039,341.603729 147.308868,334.881409 146.730896,328.285767 
	C146.474808,325.363159 145.617340,322.085846 149.401581,320.701355 
	C153.064590,319.361176 155.335129,321.669250 157.289413,324.293304 
	C158.374268,325.749969 159.233551,327.373871 160.308228,328.838989 
	C165.498505,335.915039 165.401413,340.015778 159.511108,347.226532 
	C158.307129,347.535675 157.775192,347.024017 157.244202,345.948730 
	C157.097794,345.339844 157.071182,345.092804 157.072296,344.480896 
	C157.366623,342.634552 158.449692,341.497406 158.835037,340.077606 
	C159.873505,336.251373 157.944092,333.700104 154.063431,333.775970 
	C152.139847,333.813599 150.512100,333.333740 149.239227,331.335388 
	C148.589691,330.558197 148.509155,329.948578 148.533096,329.308868 
	C148.442337,329.979950 148.615250,330.574127 149.253616,331.384003 
	C152.152649,335.452087 151.523453,340.259613 153.532990,344.645874 
	C154.311325,346.710907 154.732483,348.477539 155.038635,350.671906 
	C153.090057,356.655396 151.832916,362.392212 151.258606,368.599396 
	C146.877853,367.800995 145.137222,364.127533 142.368469,361.092712 
	C141.798035,360.725250 141.539444,360.505249 141.307343,359.966431 
	C141.107086,359.036682 140.932816,358.363983 140.735046,357.343201 
	C142.211563,354.125458 144.862656,351.904846 145.680984,348.246033 
z"/>
<path fill="#4C9C84" opacity="1.000000" stroke="none" 
	d="
M151.027130,369.228088 
	C150.393311,362.786652 150.820297,356.867615 153.999969,351.014343 
	C155.682877,349.764648 157.024490,350.227234 158.537109,351.565002 
	C159.678284,356.495087 161.924881,359.828888 166.476807,362.027924 
	C170.327499,363.888184 171.218124,368.194397 172.033234,372.546570 
	C165.563950,377.413757 158.285400,376.255524 151.027130,369.228088 
z"/>
<path fill="#4C9C84" opacity="1.000000" stroke="none" 
	d="
M145.534470,347.988647 
	C147.359314,352.405426 144.100250,354.422638 141.045471,356.855743 
	C137.703293,355.467407 137.197693,352.674835 136.980255,349.321899 
	C138.615799,344.445312 139.053055,344.397156 145.534470,347.988647 
z"/>
<path fill="#D5D7DA" opacity="1.000000" stroke="none" 
	d="
M122.030891,253.136871 
	C127.686607,249.289703 133.116653,245.343948 139.869675,243.860886 
	C134.464249,247.552979 128.469208,250.301178 123.099686,254.607773 
	C122.584160,254.379349 122.295113,253.902634 122.030891,253.136871 
z"/>
<path fill="#D5D7DA" opacity="1.000000" stroke="none" 
	d="
M127.169334,263.520477 
	C131.202957,260.821533 134.968903,257.897888 140.117477,257.477631 
	C136.262283,259.818878 132.407104,262.160156 128.296814,264.716309 
	C127.411354,264.816010 127.091599,264.458008 127.169334,263.520477 
z"/>
<path fill="#D5D7DA" opacity="1.000000" stroke="none" 
	d="
M134.130646,273.263611 
	C136.084122,271.760590 137.907455,270.067719 140.933548,270.018463 
	C139.803207,272.569244 137.334900,272.566254 135.565338,274.000244 
	C134.901001,273.933044 134.550385,273.744934 134.130646,273.263611 
z"/>
<path fill="#4C9C84" opacity="1.000000" stroke="none" 
	d="
M141.298737,359.972931 
	C141.516342,359.938080 141.751328,360.166809 142.047775,360.639465 
	C141.844849,360.667755 141.580490,360.452148 141.298737,359.972931 
z"/>
<path fill="#2B2722" opacity="1.000000" stroke="none" 
	d="
M360.057037,180.355392 
	C363.462524,176.959198 367.244507,174.627045 371.172333,172.552505 
	C371.490112,172.951706 371.807892,173.350906 372.125671,173.750092 
	C367.231873,180.156860 362.338104,186.563644 357.084137,193.011887 
	C357.834290,188.952393 358.944641,184.851440 360.057037,180.355392 
z"/>
<path fill="#DDDDDD" opacity="1.000000" stroke="none" 
	d="
M289.140076,230.029175 
	C289.556732,230.167999 289.955475,230.684067 290.465210,231.512131 
	C289.739685,231.712372 289.230469,231.265015 289.140076,230.029175 
z"/>
<path fill="#DDDDDD" opacity="1.000000" stroke="none" 
	d="
M291.139160,232.142273 
	C291.344208,232.035797 291.699951,232.193817 292.224854,232.598236 
	C292.025970,232.698669 291.657898,232.552719 291.139160,232.142273 
z"/>
<path fill="#8A9FAF" opacity="1.000000" stroke="none" 
	d="
M385.835205,192.476044 
	C385.773315,192.886353 385.468842,192.880615 385.320557,192.854584 
	C385.155975,191.156326 385.139740,189.484116 385.181763,187.395981 
	C392.020172,187.329422 398.797211,187.792297 405.581848,187.979996 
	C408.945984,188.073074 412.136475,188.332214 414.651489,190.558228 
	C406.461823,190.061203 398.100067,189.557907 389.738953,189.043564 
	C387.545654,188.908646 385.662781,189.131805 385.835205,192.476044 
z"/>
<path fill="#DDDDDD" opacity="1.000000" stroke="none" 
	d="
M372.831940,409.110229 
	C380.060547,411.174011 387.971161,411.576263 391.864746,419.700104 
	C391.924133,423.696259 388.930359,424.634888 386.414215,426.163025 
	C377.913727,431.325684 369.194458,433.667358 359.147430,430.729431 
	C352.666779,428.834381 346.396027,427.343475 343.034973,420.357086 
	C347.827209,414.059601 354.216736,410.557343 361.726685,408.131165 
	C363.270660,407.661316 363.929810,408.516724 364.548096,409.237396 
	C367.222351,412.354584 369.851257,412.083130 372.831940,409.110229 
z"/>
<path fill="#40474D" opacity="1.000000" stroke="none" 
	d="
M366.197144,128.271927 
	C366.902283,127.353355 367.864014,126.401947 369.010529,125.806129 
	C372.611664,123.934662 375.718414,125.908669 375.898254,129.984131 
	C376.109802,134.778549 374.282776,139.419205 374.904388,144.234848 
	C375.129150,145.976059 374.739990,148.342407 378.151764,146.952301 
	C378.801056,148.703751 378.745087,150.203766 376.153534,150.034256 
	C374.048096,149.896530 373.934204,148.513672 373.842651,146.916336 
	C373.567871,142.122528 373.560394,137.347748 373.865326,132.542191 
	C374.231995,126.764458 374.020935,126.740883 368.500214,128.091385 
	C367.859283,128.248169 367.192841,128.300858 366.197144,128.271927 
z"/>
<path fill="#40474D" opacity="1.000000" stroke="none" 
	d="
M346.921936,133.645416 
	C345.234558,130.638733 346.278870,127.927292 349.163116,125.976868 
	C351.638580,124.302864 353.465729,125.638145 355.026062,128.066101 
	C350.822693,127.299019 347.329041,127.649536 346.921936,133.645416 
z"/>
<path fill="#40474D" opacity="1.000000" stroke="none" 
	d="
M379.024658,145.687027 
	C378.885651,145.757782 378.988586,145.276169 379.053833,145.173798 
	C379.324432,145.237427 379.339294,145.419037 379.024658,145.687027 
z"/>
<path fill="#40474D" opacity="1.000000" stroke="none" 
	d="
M652.657227,318.992676 
	C653.175232,320.791443 652.404785,322.314636 651.189941,323.975708 
	C650.883667,323.723846 650.904358,323.297516 650.895020,322.554504 
	C651.087952,321.048218 651.058411,319.746918 652.657227,318.992676 
z"/>
<path fill="#C08777" opacity="1.000000" stroke="none" 
	d="
M373.091064,408.537354 
	C369.916534,414.757202 367.402252,414.609283 362.357788,408.176117 
	C361.493073,404.585449 363.688690,400.700745 360.144714,397.425293 
	C357.608978,393.527252 355.758667,389.947235 358.742737,385.772186 
	C359.539459,384.657471 360.254150,383.096985 361.736847,384.208588 
	C365.207367,386.810516 369.195953,386.615875 373.146301,386.909546 
	C374.843933,387.035706 376.358032,387.721039 377.583618,389.528992 
	C378.837646,393.436707 375.064240,394.843506 374.176392,397.954498 
	C371.867218,401.393677 373.107208,404.812134 373.091064,408.537354 
z"/>
<path fill="#1B2B3B" opacity="1.000000" stroke="none" 
	d="
M377.247864,390.277039 
	C375.435852,387.882904 373.171967,387.730804 370.821411,388.047729 
	C366.872650,388.580200 363.274933,388.233093 360.972473,384.163757 
	C358.609283,390.707703 358.609283,390.707703 360.246216,396.910156 
	C354.695770,392.307098 353.571198,388.247772 356.247498,383.673737 
	C359.941864,377.359741 364.523651,375.182098 370.373779,376.959808 
	C376.699341,378.881958 380.077911,383.830536 379.356079,390.740906 
	C378.387268,391.540283 377.884216,391.147400 377.247864,390.277039 
z"/>
<path fill="#40474D" opacity="1.000000" stroke="none" 
	d="
M377.018005,390.377686 
	C377.568146,390.282776 378.075989,390.576050 378.862915,390.960754 
	C378.941803,394.214447 376.634705,396.008911 374.311798,398.154053 
	C372.583618,394.843109 377.282867,393.794678 377.018005,390.377686 
z"/>
<path fill="#C08777" opacity="1.000000" stroke="none" 
	d="
M158.838104,351.465027 
	C157.474442,351.486389 156.144150,351.143555 154.471313,350.723358 
	C153.687805,349.058746 153.246826,347.471497 153.067856,345.291199 
	C154.687820,344.495422 156.051376,344.585999 157.728699,344.753296 
	C158.219650,345.599091 158.395767,346.312073 158.893616,347.221802 
	C159.100739,348.645935 158.986099,349.873383 158.838104,351.465027 
z"/>
<path fill="#C08777" opacity="1.000000" stroke="none" 
	d="
M152.856033,345.120056 
	C150.008789,341.194458 150.714066,336.202332 148.862640,331.557922 
	C148.809250,330.960846 148.817337,330.750946 149.133148,330.608826 
	C152.238800,333.926147 155.309097,332.768616 158.647614,330.677582 
	C158.686752,335.349518 163.038559,339.461365 158.253067,343.895538 
	C156.626785,344.995697 155.084213,344.893646 153.252426,344.832672 
	C152.977219,345.016479 152.898026,345.087463 152.856033,345.120056 
z"/>
<path fill="#40474D" opacity="1.000000" stroke="none" 
	d="
M153.309998,345.093964 
	C153.821838,341.748596 156.005249,344.928436 157.719666,344.154510 
	C158.081497,344.202118 158.085342,344.545837 158.064438,344.715942 
	C156.609085,345.481934 155.205215,346.549255 153.309998,345.093964 
z"/>
<path fill="#C08777" opacity="1.000000" stroke="none" 
	d="
M148.958145,331.043396 
	C147.866287,330.503540 147.357010,329.267914 148.187347,328.702515 
	C149.256271,327.974731 148.944931,329.530884 149.385132,330.346588 
	C149.440887,330.676605 149.115128,330.916046 148.958145,331.043396 
z"/>
</svg>