<svg version="1.1" id="Layer_1" xmlns="http://www.w3.org/2000/svg" xmlns:xlink="http://www.w3.org/1999/xlink" x="0px" y="0px"
	 width="100%" viewBox="0 0 534 477" enable-background="new 0 0 534 477" xml:space="preserve">
<path fill="#F9F9F9" opacity="1.000000" stroke="none" 
	d="
M318.000000,478.000000 
	C212.000031,478.000000 106.500053,478.000000 1.000057,478.000000 
	C1.000038,319.000061 1.000038,160.000122 1.000019,1.000142 
	C178.999893,1.000095 356.999786,1.000095 534.999756,1.000047 
	C534.999878,159.999863 534.999878,318.999725 534.999939,477.999786 
	C462.833344,478.000000 390.666656,478.000000 318.000000,478.000000 
M372.162323,436.837769 
	C380.144379,438.496674 388.126434,440.155579 396.566742,441.909698 
	C396.812927,438.945251 396.933105,437.498291 397.983246,436.028839 
	C403.081024,436.023346 408.179138,435.983154 413.276459,436.028503 
	C415.474091,436.048065 417.342346,435.860291 416.917084,431.985565 
	C417.221954,426.869202 417.825897,421.750122 417.778870,416.636993 
	C417.594177,396.561157 417.231812,376.486633 416.817535,356.414062 
	C416.794434,355.294647 415.712708,354.197052 414.582062,352.615631 
	C418.310547,332.845917 421.934021,313.055664 425.802032,293.313293 
	C428.689362,278.576263 431.928375,263.908417 434.944397,249.196198 
	C437.625885,236.115936 440.248077,223.023300 442.837921,209.924561 
	C445.561859,196.147751 448.230438,182.359924 450.897614,168.571976 
	C454.381256,150.563400 457.819580,132.546051 461.321411,114.541039 
	C462.379852,109.098938 461.268127,107.180733 455.965576,106.162460 
	C446.749420,104.392662 437.505859,102.764961 428.294312,100.972229 
	C415.160156,98.416084 402.061951,95.672668 388.914612,93.187737 
	C380.640839,91.623940 372.305359,90.386559 363.992859,88.507088 
	C363.992859,88.507088 363.991882,88.011421 363.981140,87.207329 
	C363.824554,84.776360 363.522064,82.343796 363.548706,79.914841 
	C363.581207,76.946175 362.528046,74.974808 359.359467,75.037483 
	C345.905212,75.303642 332.452972,75.670525 318.191895,76.000244 
	C316.460876,76.335640 314.729858,76.671036 312.332977,77.006317 
	C311.889069,77.006683 311.445129,77.007050 310.661652,76.374573 
	C308.774017,76.251160 306.886414,76.127747 304.130157,76.001442 
	C300.419220,75.671692 296.708252,75.341942 292.481995,74.447060 
	C281.962555,72.352425 271.433136,70.306465 260.926453,68.149666 
	C250.086868,65.924538 239.262283,63.624802 228.444061,61.297665 
	C213.661255,58.117695 212.903152,58.213100 211.314682,70.343094 
	C210.628571,75.582283 208.174286,76.041138 204.103165,76.032028 
	C176.288971,75.969749 148.474579,75.999229 120.660240,75.999893 
	C110.024933,76.000145 110.003914,76.001060 110.003227,86.654724 
	C109.998512,159.771439 110.003319,232.888168 110.003395,306.941193 
	C110.002121,341.551361 110.067215,376.161804 109.912560,410.771271 
	C109.893990,414.928345 111.102280,416.098236 115.241531,416.084900 
	C161.165985,415.936798 207.091034,415.973785 253.948257,415.977753 
	C260.299225,416.317169 266.650177,416.656616 273.501007,417.555298 
	C287.676971,420.372009 301.852905,423.188690 316.053955,426.795044 
	C316.346375,428.460907 316.638763,430.126740 316.991211,432.385803 
	C316.992310,432.584564 316.993408,432.783295 316.754028,433.625183 
	C318.317444,434.420227 319.872986,435.888245 321.445557,435.906769 
	C338.268433,436.104675 355.094025,436.073242 372.162323,436.837769 
M100.974953,92.315010 
	C103.367470,88.719566 101.580017,85.936409 98.486702,84.667343 
	C97.110771,84.102837 93.562256,85.663811 92.998947,87.064201 
	C92.237320,88.957588 93.400124,91.625084 93.737251,93.960457 
	C95.942390,93.563988 98.147537,93.167526 100.974953,92.315010 
M84.458405,254.177856 
	C83.916481,253.358154 83.358620,252.548492 82.835442,251.716995 
	C80.776436,248.444397 78.371468,248.325684 75.507912,250.752136 
	C72.426125,253.363510 74.678452,255.542480 76.173103,257.481384 
	C77.716736,259.483826 82.649841,257.853241 84.458405,254.177856 
M91.816383,388.506287 
	C94.039619,386.558594 96.262863,384.610901 98.425713,382.716095 
	C96.466537,380.939270 94.511154,379.165863 91.901855,376.799408 
	C90.309937,378.576080 88.587021,380.498993 87.162285,382.089081 
	C88.819237,384.419891 90.080765,386.194458 91.816383,388.506287 
M30.575008,200.300735 
	C30.537638,196.690094 28.103050,195.478638 25.294832,196.287720 
	C23.745308,196.734161 22.091076,198.937622 21.723471,200.619858 
	C21.478718,201.739929 23.160732,204.143478 24.438904,204.557724 
	C27.264454,205.473450 29.656672,204.338669 30.575008,200.300735 
M41.031761,103.222252 
	C39.899048,105.086594 38.766338,106.950943 37.633633,108.815285 
	C39.748596,109.786873 41.816166,111.263657 44.003036,111.468826 
	C44.819893,111.545471 47.071339,108.032707 46.647335,107.246025 
	C45.707489,105.502266 43.488380,104.447983 41.031761,103.222252 
M515.785339,257.508667 
	C511.677124,255.955597 509.589844,258.203033 509.566040,261.761566 
	C509.557190,263.081085 512.200256,264.925415 513.980347,265.562225 
	C515.071472,265.952545 518.044739,264.509491 518.047058,263.881989 
	C518.054382,261.879944 517.067810,259.874298 515.785339,257.508667 
M478.942535,376.292084 
	C477.125061,379.311676 479.080505,381.233917 481.324677,382.273224 
	C482.552032,382.841614 485.392670,382.342072 485.944855,381.404663 
	C486.844818,379.876740 487.316193,377.016754 486.453613,375.751984 
	C484.581848,373.007599 481.743530,373.291351 478.942535,376.292084 
M489.459961,97.932343 
	C493.029602,97.742455 493.512115,95.124611 492.636292,92.737579 
	C492.170990,91.469307 489.753296,90.118340 488.325012,90.226906 
	C486.893494,90.335716 484.750244,92.004105 484.413818,93.359871 
	C483.675568,96.334755 485.751801,97.767860 489.459961,97.932343 
M207.739517,47.210884 
	C209.345718,42.784725 207.989105,39.703548 204.517502,40.295433 
	C203.120514,40.533607 201.199936,41.763454 200.835358,42.947647 
	C200.397446,44.370049 200.846237,47.054169 201.854294,47.685158 
	C203.142654,48.491604 205.373108,47.793003 207.739517,47.210884 
M463.972382,208.270233 
	C461.084869,211.864731 461.394531,215.560135 464.751526,215.715607 
	C466.447052,215.794128 469.361389,214.307938 469.758331,212.953140 
	C470.874115,209.144852 468.555145,207.579987 463.972382,208.270233 
M318.582489,37.818344 
	C320.614563,36.927616 322.646606,36.036888 324.671631,35.149246 
	C321.372986,27.844004 321.372986,27.844004 315.347504,32.400284 
	C316.184845,34.119652 317.035980,35.867294 318.582489,37.818344 
z"/>
<path fill="#F2F2F2" opacity="1.000000" stroke="none" 
	d="
M110.005051,306.004883 
	C110.003319,232.888168 109.998512,159.771439 110.003227,86.654724 
	C110.003914,76.001060 110.024933,76.000145 120.660240,75.999893 
	C148.474579,75.999229 176.288971,75.969749 204.103165,76.032028 
	C208.174286,76.041138 210.628571,75.582283 211.314682,70.343094 
	C212.903152,58.213100 213.661255,58.117695 228.444061,61.297665 
	C239.262283,63.624802 250.086868,65.924538 260.926453,68.149666 
	C271.433136,70.306465 281.962555,72.352425 292.463684,75.010109 
	C290.642334,75.663551 288.839935,75.771530 287.036041,75.839645 
	C285.021942,75.915710 283.006531,75.955574 280.558136,76.009514 
	C276.781067,75.341522 273.443756,74.642105 270.092834,74.015205 
	C260.576324,72.234840 251.063416,70.432861 241.531540,68.738098 
	C234.087555,67.414574 226.623581,66.199303 219.155609,65.017296 
	C216.336960,64.571175 215.327347,65.679161 214.854141,68.776306 
	C213.611526,76.909325 211.664154,84.934662 209.582901,93.057510 
	C206.880600,93.406578 204.593735,93.949760 202.305206,93.956787 
	C180.991852,94.022194 159.678192,93.978378 138.364761,94.027176 
	C136.618576,94.031166 134.873413,94.483986 133.127777,94.728256 
	C133.144196,95.286102 133.160599,95.843941 133.177002,96.401787 
	C134.819824,96.598923 136.462265,96.963707 138.105530,96.967484 
	C156.088745,97.008804 174.074173,96.839516 192.054138,97.084801 
	C197.699951,97.161819 203.331146,98.312035 208.978500,99.366730 
	C208.634964,101.544884 208.281967,103.327324 207.492630,105.076347 
	C201.776031,104.738281 196.497253,104.205627 191.215225,104.170959 
	C174.173157,104.059135 157.129578,104.084435 140.087570,104.201317 
	C138.339371,104.213303 136.597809,105.195862 134.533447,105.763153 
	C133.788910,105.856285 133.364090,105.914330 132.595886,106.014816 
	C131.629822,106.742447 131.007095,107.427643 129.930649,108.612068 
	C131.871384,108.806618 132.853821,108.989616 133.836533,108.991211 
	C155.955017,109.027008 178.073517,109.050919 200.192001,109.035294 
	C201.146530,109.034622 202.100754,108.635170 203.341995,108.417923 
	C204.008957,108.449791 204.389038,108.485237 204.820999,108.684448 
	C204.872864,108.848221 204.959091,109.186829 204.890198,109.534889 
	C204.652359,110.164444 204.399414,110.425865 204.326675,110.730347 
	C201.898605,120.891655 199.436798,131.045807 197.179810,141.245239 
	C197.015457,141.987930 198.354919,143.063385 198.890747,144.245789 
	C198.524445,145.005173 198.262619,145.502899 197.659668,145.962784 
	C195.877670,144.949997 194.436783,143.975037 192.613235,142.832611 
	C191.601685,142.461823 190.973297,142.082474 190.343887,142.080795 
	C172.525284,142.033371 154.706421,141.992950 136.888382,142.093369 
	C135.922241,142.098801 134.963043,143.334930 134.000610,144.466949 
	C134.333740,162.471130 134.767410,180.005569 134.940170,197.542572 
	C134.993637,202.969101 134.209991,208.398697 134.042236,213.834076 
	C133.876160,219.215195 134.003677,224.605377 133.732666,230.244049 
	C132.844742,234.286362 135.825668,232.922943 137.340698,232.937988 
	C149.320282,233.057068 161.301590,232.994553 173.282318,233.014862 
	C175.046188,233.017838 176.809845,233.162735 178.640610,233.244965 
	C178.743500,234.436600 178.950668,235.112671 178.831955,235.725632 
	C177.549911,242.345078 176.180206,248.947617 174.914032,255.569992 
	C174.353592,258.501221 172.499146,259.068542 169.836807,259.040070 
	C160.353134,258.938599 150.866135,258.915710 141.384583,259.090515 
	C139.913147,259.117615 138.463593,260.332153 136.670120,261.171936 
	C135.557938,263.051056 134.126022,264.747467 134.104126,266.461823 
	C133.922455,280.691956 133.949615,294.925964 134.088608,309.157043 
	C134.101196,310.445831 135.340714,311.722656 136.008484,313.448242 
	C136.009506,316.256500 136.012482,318.621552 135.727646,321.265930 
	C135.294647,330.358185 135.149460,339.171051 134.670105,348.051453 
	C134.978027,348.745361 135.608521,349.901520 136.264023,349.915863 
	C142.545639,350.053436 148.831451,349.998138 155.457336,349.998138 
	C155.042389,352.810211 154.819824,355.104614 154.352859,357.348206 
	C152.230484,367.545349 150.110977,377.744263 147.824203,387.905121 
	C147.226151,390.562500 147.146454,392.352295 150.421768,393.025818 
	C167.733719,396.585785 185.007401,400.333282 202.332291,403.827759 
	C207.488510,404.867737 212.767426,405.299377 217.977707,406.409790 
	C216.743149,407.538300 215.557037,408.811310 214.292206,408.895020 
	C210.206055,409.165436 206.090958,408.999725 201.987015,408.999786 
	C175.857590,409.000214 149.728119,409.027344 123.598755,408.987732 
	C111.640511,408.969604 113.029991,410.338837 113.013367,398.284943 
	C112.973213,369.159851 113.011978,340.034637 112.971107,310.909546 
	C112.968140,308.793182 113.946854,305.843109 110.005051,306.004883 
z"/>
<path fill="#F2F2F2" opacity="1.000000" stroke="none" 
	d="
M363.997559,89.002747 
	C372.305359,90.386559 380.640839,91.623940 388.914612,93.187737 
	C402.061951,95.672668 415.160156,98.416084 428.294312,100.972229 
	C437.505859,102.764961 446.749420,104.392662 455.965576,106.162460 
	C461.268127,107.180733 462.379852,109.098938 461.321411,114.541039 
	C457.819580,132.546051 454.381256,150.563400 450.897614,168.571976 
	C448.230438,182.359924 445.561859,196.147751 442.837921,209.924561 
	C440.248077,223.023300 437.625885,236.115936 434.944397,249.196198 
	C431.928375,263.908417 428.689362,278.576263 425.802032,293.313293 
	C421.934021,313.055664 418.310547,332.845917 414.824585,353.170105 
	C415.039398,354.150940 415.011658,354.577301 414.557678,355.002319 
	C412.200104,355.121307 410.235382,355.495728 408.352264,355.248505 
	C407.487030,355.134918 406.781921,353.801880 406.390076,353.005737 
	C407.839630,351.344818 409.489716,349.825562 409.872955,348.035126 
	C412.607635,335.258972 415.102600,322.431244 417.637878,309.612793 
	C421.135162,291.930664 424.606964,274.243439 428.078094,256.556183 
	C430.817444,242.597549 433.414398,228.609528 436.312134,214.683990 
	C438.321075,205.029648 440.950714,195.503510 442.918732,185.841812 
	C446.537964,168.073715 449.903320,150.253525 453.313416,132.443375 
	C454.633698,125.547966 455.788177,118.620842 457.097382,111.263268 
	C446.368927,109.387123 436.256287,107.832451 426.235687,105.819641 
	C408.077698,102.172302 389.968079,98.282318 371.855652,94.412254 
	C369.188782,93.842415 366.617249,92.826530 364.000458,91.640213 
	C363.998749,90.509842 363.998138,89.756294 363.997559,89.002747 
z"/>
<path fill="#F5F5F5" opacity="1.000000" stroke="none" 
	d="
M316.994476,432.982056 
	C316.993408,432.783295 316.992310,432.584564 316.966888,431.711975 
	C316.998138,428.710175 316.860229,426.354004 317.192841,424.066284 
	C317.353363,422.962219 318.399139,421.986877 319.115753,421.125732 
	C319.445038,421.185669 319.702698,421.073090 320.172424,420.837402 
	C320.649231,420.510651 320.852020,420.257385 321.461945,419.970398 
	C352.624084,419.986511 383.317139,419.986755 414.312927,420.271118 
	C415.037903,424.726379 415.460175,428.897552 415.589172,433.342712 
	C414.815521,433.728333 414.335236,433.937286 413.854858,433.937653 
	C382.999481,433.960846 352.144073,433.980438 321.288788,433.932739 
	C319.856842,433.930542 318.425903,433.313019 316.994476,432.982056 
z"/>
<path fill="#EAEAEA" opacity="1.000000" stroke="none" 
	d="
M110.004227,306.473022 
	C113.946854,305.843109 112.968140,308.793182 112.971107,310.909546 
	C113.011978,340.034637 112.973213,369.159851 113.013367,398.284943 
	C113.029991,410.338837 111.640511,408.969604 123.598755,408.987732 
	C149.728119,409.027344 175.857590,409.000214 201.987015,408.999786 
	C206.090958,408.999725 210.206055,409.165436 214.292206,408.895020 
	C215.557037,408.811310 216.743149,407.538300 218.369400,406.413391 
	C223.515671,407.344666 228.257843,408.672333 233.412811,410.002197 
	C239.459106,411.041229 245.116226,411.972168 250.702774,413.219360 
	C251.631531,413.426666 252.252655,415.012115 253.015930,415.960754 
	C207.091034,415.973785 161.165985,415.936798 115.241531,416.084900 
	C111.102280,416.098236 109.893990,414.928345 109.912560,410.771271 
	C110.067215,376.161804 110.002121,341.551361 110.004227,306.473022 
z"/>
<path fill="#B4ECD5" opacity="1.000000" stroke="none" 
	d="
M415.882477,433.068695 
	C415.460175,428.897552 415.037903,424.726379 414.176636,420.048737 
	C413.141541,419.186920 412.545441,418.831573 412.369202,418.314636 
	C413.632935,416.685913 415.186523,415.229614 415.209167,413.749908 
	C415.402527,401.109985 415.124390,388.461212 415.420776,375.825287 
	C415.526337,371.325592 414.411987,369.890656 409.690948,369.926727 
	C380.414307,370.150421 351.135040,370.022552 321.856812,370.083740 
	C319.920990,370.087799 317.986420,370.689575 315.978943,370.654236 
	C315.984772,369.567261 316.062958,368.839386 316.438171,368.089294 
	C317.134399,368.062653 317.533600,368.058228 318.405396,368.073120 
	C346.648254,368.098022 374.418549,368.109406 402.188843,368.106628 
	C415.168945,368.105316 415.168945,368.092926 414.983887,355.003662 
	C415.011658,354.577301 415.039398,354.150940 415.095428,353.406921 
	C415.712708,354.197052 416.794434,355.294647 416.817535,356.414062 
	C417.231812,376.486633 417.594177,396.561157 417.778870,416.636993 
	C417.825897,421.750122 417.221954,426.869202 416.659119,432.484589 
	C416.228271,433.011963 416.055359,433.040344 415.882477,433.068695 
z"/>
<path fill="#EAEAEA" opacity="1.000000" stroke="none" 
	d="
M363.995178,88.754913 
	C363.998138,89.756294 363.998749,90.509842 363.556244,91.637802 
	C351.291656,90.017075 339.457764,88.091713 327.653381,85.999947 
	C320.857697,84.795746 314.091553,83.406342 307.344788,81.949135 
	C298.543488,80.048187 289.774536,77.997475 280.991669,76.011192 
	C283.006531,75.955574 285.021942,75.915710 287.036041,75.839645 
	C288.839935,75.771530 290.642334,75.663551 292.721344,75.292679 
	C296.708252,75.341942 300.419220,75.671692 304.782501,76.266701 
	C307.290314,76.690445 309.145752,76.848930 311.001221,77.007416 
	C311.445129,77.007050 311.889069,77.006683 312.743347,77.378220 
	C313.803314,78.172035 314.416199,78.879814 315.108612,78.968826 
	C319.187225,79.493141 323.348816,79.553459 327.363129,80.362289 
	C339.271454,82.761658 351.124176,85.436844 363.246948,88.005600 
	C363.495270,88.006996 363.991882,88.011421 363.991882,88.011421 
	C363.991882,88.011421 363.992859,88.507088 363.995178,88.754913 
z"/>
<path fill="#E3E3E3" opacity="1.000000" stroke="none" 
	d="
M253.482101,415.969238 
	C252.252655,415.012115 251.631531,413.426666 250.702774,413.219360 
	C245.116226,411.972168 239.459106,411.041229 233.489166,409.632080 
	C233.639984,408.876740 234.140167,408.146118 234.612564,408.163635 
	C240.288589,408.374420 245.960083,408.871307 251.633774,408.885773 
	C253.420807,408.890320 255.210938,407.678925 257.398804,407.070709 
	C270.868225,409.738922 283.938568,412.360474 296.713959,415.279358 
	C292.642548,415.719025 288.861786,415.791809 285.090698,416.022583 
	C281.056091,416.269470 277.030609,416.665253 273.001129,416.996033 
	C266.650177,416.656616 260.299225,416.317169 253.482101,415.969238 
z"/>
<path fill="#F2F2F2" opacity="1.000000" stroke="none" 
	d="
M362.998657,88.004196 
	C351.124176,85.436844 339.271454,82.761658 327.363129,80.362289 
	C323.348816,79.553459 319.187225,79.493141 315.108612,78.968826 
	C314.416199,78.879814 313.803314,78.172035 313.076263,77.378281 
	C314.729858,76.671036 316.460876,76.335640 318.690094,76.393753 
	C324.921448,77.434776 330.644196,78.477768 336.390411,78.628899 
	C343.444458,78.814430 350.519287,78.112755 357.582062,78.170609 
	C358.639191,78.179276 360.782806,80.818100 360.552094,81.257530 
	C358.790710,84.612404 361.588562,86.008904 362.998657,88.004196 
z"/>
<path fill="#EAEAEA" opacity="1.000000" stroke="none" 
	d="
M273.251068,417.275665 
	C277.030609,416.665253 281.056091,416.269470 285.090698,416.022583 
	C288.861786,415.791809 292.642548,415.719025 297.124817,415.283997 
	C303.567139,416.007385 309.303619,417.023529 315.065826,418.438171 
	C315.403961,421.226227 315.716400,423.615814 316.028870,426.005402 
	C301.852905,423.188690 287.676971,420.372009 273.251068,417.275665 
z"/>
<path fill="#E3E3E3" opacity="1.000000" stroke="none" 
	d="
M415.589172,433.342712 
	C416.055359,433.040344 416.228271,433.011963 416.660370,432.944397 
	C417.342346,435.860291 415.474091,436.048065 413.276459,436.028503 
	C408.179138,435.983154 403.081024,436.023346 397.043884,436.024506 
	C388.042633,436.048370 379.980743,436.076569 371.918854,436.104767 
	C355.094025,436.073242 338.268433,436.104675 321.445557,435.906769 
	C319.872986,435.888245 318.317444,434.420227 316.874268,433.303650 
	C318.425903,433.313019 319.856842,433.930542 321.288788,433.932739 
	C352.144073,433.980438 382.999481,433.960846 413.854858,433.937653 
	C414.335236,433.937286 414.815521,433.728333 415.589172,433.342712 
z"/>
<path fill="#F5F5F5" opacity="1.000000" stroke="none" 
	d="
M363.246948,88.005600 
	C361.588562,86.008904 358.790710,84.612404 360.552094,81.257530 
	C360.782806,80.818100 358.639191,78.179276 357.582062,78.170609 
	C350.519287,78.112755 343.444458,78.814430 336.390411,78.628899 
	C330.644196,78.477768 324.921448,77.434776 319.094147,76.393936 
	C332.452972,75.670525 345.905212,75.303642 359.359467,75.037483 
	C362.528046,74.974808 363.581207,76.946175 363.548706,79.914841 
	C363.522064,82.343796 363.824554,84.776360 363.986511,87.609375 
	C363.991882,88.011421 363.495270,88.006996 363.246948,88.005600 
z"/>
<path fill="#EAEAEA" opacity="1.000000" stroke="none" 
	d="
M372.040588,436.471252 
	C379.980743,436.076569 388.042633,436.048370 396.578888,436.035767 
	C396.933105,437.498291 396.812927,438.945251 396.566742,441.909698 
	C388.126434,440.155579 380.144379,438.496674 372.040588,436.471252 
z"/>
<path fill="#E3E3E3" opacity="1.000000" stroke="none" 
	d="
M100.663818,92.543030 
	C98.147537,93.167526 95.942390,93.563988 93.737259,93.960457 
	C93.400124,91.625084 92.237320,88.957588 92.998947,87.064201 
	C93.562256,85.663811 97.110771,84.102837 98.486702,84.667343 
	C101.580017,85.936409 103.367470,88.719566 100.663818,92.543030 
z"/>
<path fill="#B4ECD5" opacity="1.000000" stroke="none" 
	d="
M316.041382,426.400208 
	C315.716400,423.615814 315.403961,421.226227 315.224426,418.046906 
	C315.589630,415.481262 316.012543,413.706482 316.023163,411.929260 
	C316.090393,400.684814 316.027405,389.439514 316.113525,378.195312 
	C316.126770,376.462341 316.687042,374.733551 317.082642,373.464203 
	C317.172607,387.174377 317.272247,400.424377 317.103119,413.670990 
	C317.063660,416.759369 318.068481,418.266602 321.054413,418.879395 
	C321.027863,419.477081 321.010345,419.715790 320.992859,419.954529 
	C320.852020,420.257385 320.649231,420.510651 319.943604,420.832123 
	C319.502686,420.949921 319.044067,420.953247 319.044067,420.953247 
	C318.399139,421.986877 317.353363,422.962219 317.192841,424.066284 
	C316.860229,426.354004 316.998138,428.710175 316.936859,431.415405 
	C316.638763,430.126740 316.346375,428.460907 316.041382,426.400208 
z"/>
<path fill="#E3E3E3" opacity="1.000000" stroke="none" 
	d="
M84.609268,254.515564 
	C82.649841,257.853241 77.716736,259.483826 76.173103,257.481384 
	C74.678452,255.542480 72.426125,253.363510 75.507912,250.752136 
	C78.371468,248.325684 80.776436,248.444397 82.835442,251.716995 
	C83.358620,252.548492 83.916481,253.358154 84.609268,254.515564 
z"/>
<path fill="#B4ECD5" opacity="1.000000" stroke="none" 
	d="
M91.579346,388.237671 
	C90.080765,386.194458 88.819237,384.419891 87.162285,382.089081 
	C88.587021,380.498993 90.309937,378.576080 91.901855,376.799408 
	C94.511154,379.165863 96.466537,380.939270 98.425713,382.716095 
	C96.262863,384.610901 94.039619,386.558594 91.579346,388.237671 
z"/>
<path fill="#EFB6AD" opacity="1.000000" stroke="none" 
	d="
M30.453495,200.654541 
	C29.656672,204.338669 27.264454,205.473450 24.438904,204.557724 
	C23.160732,204.143478 21.478718,201.739929 21.723471,200.619858 
	C22.091076,198.937622 23.745308,196.734161 25.294832,196.287720 
	C28.103050,195.478638 30.537638,196.690094 30.453495,200.654541 
z"/>
<path fill="#B4ECD5" opacity="1.000000" stroke="none" 
	d="
M41.411339,103.167404 
	C43.488380,104.447983 45.707489,105.502266 46.647335,107.246025 
	C47.071339,108.032707 44.819893,111.545471 44.003036,111.468826 
	C41.816166,111.263657 39.748596,109.786873 37.633629,108.815292 
	C38.766338,106.950943 39.899048,105.086594 41.411339,103.167404 
z"/>
<path fill="#B4ECD5" opacity="1.000000" stroke="none" 
	d="
M516.125244,257.689331 
	C517.067810,259.874298 518.054382,261.879944 518.047058,263.881989 
	C518.044739,264.509491 515.071472,265.952545 513.980347,265.562225 
	C512.200256,264.925415 509.557190,263.081085 509.566040,261.761566 
	C509.589844,258.203033 511.677124,255.955597 516.125244,257.689331 
z"/>
<path fill="#B4ECD5" opacity="1.000000" stroke="none" 
	d="
M479.115112,375.948303 
	C481.743530,373.291351 484.581848,373.007599 486.453613,375.751984 
	C487.316193,377.016754 486.844818,379.876740 485.944855,381.404663 
	C485.392670,382.342072 482.552032,382.841614 481.324677,382.273224 
	C479.080505,381.233917 477.125061,379.311676 479.115112,375.948303 
z"/>
<path fill="#EFB6AD" opacity="1.000000" stroke="none" 
	d="
M489.054810,97.945404 
	C485.751801,97.767860 483.675568,96.334755 484.413818,93.359871 
	C484.750244,92.004105 486.893494,90.335716 488.325012,90.226906 
	C489.753296,90.118340 492.170990,91.469307 492.636292,92.737579 
	C493.512115,95.124611 493.029602,97.742455 489.054810,97.945404 
z"/>
<path fill="#EFB6AD" opacity="1.000000" stroke="none" 
	d="
M207.468536,47.476959 
	C205.373108,47.793003 203.142654,48.491604 201.854294,47.685158 
	C200.846237,47.054169 200.397446,44.370049 200.835358,42.947647 
	C201.199936,41.763454 203.120514,40.533607 204.517502,40.295433 
	C207.989105,39.703548 209.345718,42.784725 207.468536,47.476959 
z"/>
<path fill="#B4ECD5" opacity="1.000000" stroke="none" 
	d="
M464.377747,208.178558 
	C468.555145,207.579987 470.874115,209.144852 469.758331,212.953140 
	C469.361389,214.307938 466.447052,215.794128 464.751526,215.715607 
	C461.394531,215.560135 461.084869,211.864731 464.377747,208.178558 
z"/>
<path fill="#B4ECD5" opacity="1.000000" stroke="none" 
	d="
M318.234802,37.716637 
	C317.035980,35.867294 316.184845,34.119652 315.347504,32.400284 
	C321.372986,27.844004 321.372986,27.844004 324.671631,35.149246 
	C322.646606,36.036888 320.614563,36.927616 318.234802,37.716637 
z"/>
<path fill="#F5F5F5" opacity="1.000000" stroke="none" 
	d="
M310.831421,76.690994 
	C309.145752,76.848930 307.290314,76.690445 305.216797,76.268143 
	C306.886414,76.127747 308.774017,76.251160 310.831421,76.690994 
z"/>
<path fill="#FEFEFE" opacity="1.000000" stroke="none" 
	d="
M316.994354,373.002808 
	C316.687042,374.733551 316.126770,376.462341 316.113525,378.195312 
	C316.027405,389.439514 316.090393,400.684814 316.023163,411.929260 
	C316.012543,413.706482 315.589630,415.481262 315.198730,417.648438 
	C309.303619,417.023529 303.567139,416.007385 297.419739,414.986633 
	C283.938568,412.360474 270.868225,409.738922 257.035400,406.900269 
	C250.286606,405.454681 244.315826,404.143646 238.310898,403.014099 
	C223.530319,400.233673 208.717819,397.621002 193.948944,394.780823 
	C180.971176,392.285095 168.042221,389.536255 155.074783,386.985352 
	C152.480591,386.475067 151.997009,385.329559 152.516754,382.786591 
	C155.295105,369.192474 157.896545,355.561981 160.518021,341.936127 
	C161.730469,335.634094 162.849426,329.314056 164.066330,322.617157 
	C166.078812,312.158081 168.035751,302.084045 170.147247,291.660004 
	C171.869339,283.208496 173.436859,275.107025 175.281097,266.739655 
	C176.530396,261.999542 177.641785,257.550079 178.446259,253.045837 
	C180.053589,244.046661 181.492661,235.017456 183.282501,225.735870 
	C184.704391,218.957535 185.844955,212.443985 187.174469,205.899506 
	C187.363388,205.868576 187.744888,205.901199 188.152863,205.893921 
	C189.291916,205.303894 190.483032,204.843399 190.675842,204.117645 
	C191.593002,200.665665 192.508255,197.169891 192.880249,193.632492 
	C193.106598,191.480011 192.345718,189.223709 192.012131,186.597473 
	C191.969986,184.515610 191.944016,182.850342 191.946808,180.891815 
	C191.984406,180.402328 191.993271,180.206085 192.280640,179.741547 
	C193.285172,176.449982 194.106903,173.445847 194.716690,170.399307 
	C195.875000,164.612366 196.912018,158.801147 198.242188,152.829987 
	C198.656052,152.105835 198.827118,151.551697 198.994049,150.628693 
	C198.660187,148.840103 198.330490,147.420349 198.000778,146.000610 
	C198.262619,145.502899 198.524445,145.005173 199.271851,144.162933 
	C200.102097,143.488098 200.684906,143.202667 200.756836,142.820953 
	C202.876724,131.571762 204.945862,120.312981 207.278168,108.889412 
	C207.665192,107.518654 207.797073,106.314201 207.928955,105.109756 
	C208.281967,103.327324 208.634964,101.544884 208.990204,98.985291 
	C209.327454,96.473068 209.662506,94.737984 209.997559,93.002907 
	C211.664154,84.934662 213.611526,76.909325 214.854141,68.776306 
	C215.327347,65.679161 216.336960,64.571175 219.155609,65.017296 
	C226.623581,66.199303 234.087555,67.414574 241.531540,68.738098 
	C251.063416,70.432861 260.576324,72.234840 270.092834,74.015205 
	C273.443756,74.642105 276.781067,75.341522 280.558136,76.009514 
	C289.774536,77.997475 298.543488,80.048187 307.344788,81.949135 
	C314.091553,83.406342 320.857697,84.795746 327.653381,85.999947 
	C339.457764,88.091713 351.291656,90.017075 363.557373,92.014618 
	C366.617249,92.826530 369.188782,93.842415 371.855652,94.412254 
	C389.968079,98.282318 408.077698,102.172302 426.235687,105.819641 
	C436.256287,107.832451 446.368927,109.387123 457.097382,111.263268 
	C455.788177,118.620842 454.633698,125.547966 453.313416,132.443375 
	C449.903320,150.253525 446.537964,168.073715 442.918732,185.841812 
	C440.950714,195.503510 438.321075,205.029648 436.312134,214.683990 
	C433.414398,228.609528 430.817444,242.597549 428.078094,256.556183 
	C424.606964,274.243439 421.135162,291.930664 417.637878,309.612793 
	C415.102600,322.431244 412.607635,335.258972 409.872955,348.035126 
	C409.489716,349.825562 407.839630,351.344818 405.995544,352.904541 
	C404.810883,350.990784 404.200562,349.180206 404.038239,347.330261 
	C403.340149,339.373535 404.473358,331.558746 401.408722,323.450195 
	C396.562836,310.628448 381.569183,300.303741 368.919708,300.009888 
	C366.149353,299.945496 363.376221,300.000519 360.916443,300.000519 
	C360.039551,297.539978 359.403229,295.754395 358.768066,293.557251 
	C359.230042,290.764465 359.690857,288.383209 360.441925,285.958191 
	C360.731873,285.247894 360.731598,284.581299 360.733795,283.501556 
	C361.286530,280.695343 361.836792,278.302277 362.612854,275.756592 
	C362.864990,274.730072 362.891296,273.856171 362.903992,272.643463 
	C363.001740,271.869324 363.113129,271.434021 363.535461,270.936340 
	C363.833435,269.894562 363.820496,268.915100 363.788910,267.603821 
	C363.891937,266.848755 364.013611,266.425476 364.480286,265.961121 
	C366.176270,265.084656 367.527313,264.249268 368.878326,263.413910 
	C368.749451,263.069916 368.620605,262.725922 368.491730,262.381927 
	C367.282013,262.263428 366.072327,262.144897 364.774841,261.801880 
	C364.585388,261.256287 364.597717,260.939667 364.798401,260.215088 
	C364.428284,258.932709 363.983765,258.062805 363.539246,257.192871 
	C362.649231,257.961121 361.759247,258.729370 360.458466,259.499390 
	C357.697113,258.961243 355.346527,258.421387 352.932678,257.549133 
	C351.571869,257.176483 350.274353,257.136200 348.619965,257.134735 
	C347.547272,257.129303 346.831421,257.085052 345.850433,257.159058 
	C345.427765,257.620483 345.270294,257.963654 345.158417,258.680298 
	C345.025909,260.034210 344.847809,261.014740 344.352783,262.080994 
	C343.732880,264.122192 343.429932,266.077606 343.153107,268.433899 
	C342.771149,270.892883 342.363037,272.951019 341.615295,275.065796 
	C341.216064,276.424744 341.156403,277.727051 341.117310,279.362488 
	C341.034760,280.126343 340.931702,280.557037 340.441406,281.008575 
	C336.504822,283.293579 337.692017,286.141510 339.085297,289.412659 
	C338.679291,291.876984 338.258209,293.941650 337.526611,296.058472 
	C337.164825,297.076508 337.113495,298.042419 337.091553,299.372620 
	C337.753174,301.153442 338.385406,302.569946 339.070282,304.329285 
	C340.333099,305.504333 341.543274,306.336548 342.712219,307.140381 
	C339.459442,312.536224 335.113403,315.090637 328.744965,313.715942 
	C322.077942,312.033722 315.707275,310.399017 309.247131,309.281281 
	C299.865692,307.658081 290.419678,306.407990 280.762482,304.720642 
	C268.020233,300.628357 255.293167,298.061859 242.218063,297.415161 
	C250.666885,299.676849 259.214111,301.409790 267.789001,302.992798 
	C272.166656,303.800995 276.593933,304.340363 281.250305,305.278717 
	C297.334930,308.702942 313.168091,311.849640 329.250366,315.268097 
	C330.899841,315.882812 332.300201,316.225800 332.697540,316.323120 
	C331.116333,325.676727 329.546112,334.641571 328.113281,343.628265 
	C327.651794,346.522583 328.608704,350.801819 327.020813,352.065857 
	C325.015015,353.662628 321.070251,352.823700 317.528931,353.026733 
	C315.272400,352.915649 313.400940,353.043182 311.632782,352.674835 
	C296.566650,349.536438 281.548004,346.164795 266.459961,343.138092 
	C240.007965,337.831696 213.519867,332.704681 187.034500,327.566406 
	C185.472870,327.263428 183.801300,327.527130 182.180878,327.527130 
	C182.154236,328.116455 182.127594,328.705780 182.100952,329.295105 
	C183.933548,329.840881 185.736465,330.534363 187.603348,330.909332 
	C203.826523,334.167755 220.051727,337.417542 236.294647,340.575684 
	C259.696533,345.125702 283.152832,349.405853 306.507507,354.184204 
	C317.733002,356.480927 315.897888,354.355896 316.010712,365.117615 
	C316.021179,366.115936 316.096130,367.113586 316.141113,368.111542 
	C316.062958,368.839386 315.984772,369.567261 316.070435,370.930664 
	C316.487640,372.045074 316.740997,372.523956 316.994354,373.002808 
M247.672928,223.339355 
	C243.727997,243.033096 239.783066,262.726837 235.717468,283.023041 
	C242.310486,284.304474 248.376846,285.483582 254.633377,286.699646 
	C258.857941,265.433167 262.930115,244.933868 267.071869,224.084183 
	C262.478882,223.076920 258.297150,222.138794 254.104126,221.254211 
	C252.967575,221.014450 251.737976,220.647964 250.658966,220.868179 
	C249.647003,221.074738 248.777771,221.980545 247.672928,223.339355 
M290.962311,280.497650 
	C292.826935,270.912689 294.691559,261.327759 296.651581,251.252380 
	C290.963348,250.162964 285.639160,248.983032 280.253418,248.265472 
	C279.327972,248.142181 277.455078,249.824631 277.187286,250.950592 
	C275.688812,257.251587 274.518402,263.631958 273.294739,269.996552 
	C272.055725,276.440887 270.885101,282.898438 269.594360,289.834869 
	C276.325073,291.119049 282.230896,292.245850 288.304291,293.404633 
	C289.270386,288.783081 290.047974,285.063293 290.962311,280.497650 
M299.508575,175.987167 
	C314.086761,178.945572 328.640656,182.030853 343.250000,184.826447 
	C357.653320,187.582611 371.934143,191.230850 386.516907,192.840515 
	C386.651764,192.041672 386.786621,191.242828 386.921478,190.444000 
	C329.863281,179.307281 272.962006,167.367813 215.579788,157.372528 
	C215.838028,158.746399 216.304565,159.575272 216.925644,159.714417 
	C222.083420,160.869888 227.261841,161.938141 232.448792,162.957703 
	C254.514725,167.295120 276.585754,171.606705 299.508575,175.987167 
M230.630524,146.951675 
	C283.491638,157.408661 336.352753,167.865631 389.213867,178.322617 
	C389.301117,177.862946 389.388367,177.403275 389.475616,176.943604 
	C385.922821,174.160294 222.023178,141.104202 217.475937,143.742081 
	C222.113541,144.887894 225.958466,145.837860 230.630524,146.951675 
M297.108002,95.529648 
	C289.646454,94.003357 282.182617,92.488312 274.724030,90.947624 
	C267.268036,89.407455 259.841492,87.711182 252.357315,86.324638 
	C245.223053,85.002922 238.031128,83.992485 230.864548,82.845200 
	C230.786179,83.334709 230.707825,83.824211 230.629456,84.313721 
	C258.566528,92.049728 396.088684,118.549522 401.461761,116.679024 
	C398.635345,115.636253 396.626251,114.577965 394.491547,114.157166 
	C375.821075,110.476784 357.134979,106.874275 338.439606,103.322166 
	C324.943665,100.757957 311.426422,98.305725 297.108002,95.529648 
M320.230347,299.892853 
	C320.886078,299.494659 322.013000,299.199799 322.126373,298.682648 
	C323.671600,291.635590 325.076508,284.557709 326.534943,277.394287 
	C320.813019,276.227631 315.960541,275.079987 311.046051,274.349091 
	C309.838562,274.169495 307.455322,275.123688 307.265564,275.940552 
	C305.709381,282.640320 304.544159,289.430878 303.229706,296.354614 
	C309.069977,297.603271 314.244293,298.709564 320.230347,299.892853 
M371.506714,141.000854 
	C368.766388,140.353455 366.045959,139.601730 363.282623,139.074936 
	C338.098145,134.273727 312.884308,129.623932 287.723480,124.702499 
	C267.769775,120.799576 247.883575,116.552208 227.945862,112.565598 
	C226.825424,112.341560 225.508667,113.099243 224.283279,113.400002 
	C252.943710,120.285034 281.271454,126.179779 309.635986,131.892014 
	C331.039551,136.202377 352.486542,140.298141 373.927399,144.420685 
	C375.486328,144.720428 377.153015,144.459991 378.769592,144.459991 
	C378.785248,143.882797 378.800903,143.305588 378.816559,142.728394 
	C376.660431,142.173340 374.504333,141.618286 371.506714,141.000854 
M219.036453,349.525604 
	C205.623825,346.887604 192.211182,344.249634 178.798553,341.611633 
	C181.785477,346.032776 306.534241,370.521545 311.658447,368.449463 
	C309.499420,367.763611 308.281281,367.248322 307.010864,366.992554 
	C290.631836,363.694275 274.250763,360.405365 257.858917,357.171295 
	C245.197968,354.673309 232.521133,352.255798 219.036453,349.525604 
M268.694641,104.988686 
	C254.946289,102.474411 241.363373,98.906914 227.242447,98.230606 
	C228.721725,99.836128 230.397141,100.658638 232.167068,101.026894 
	C239.980942,102.652672 247.820160,104.157204 255.653641,105.688103 
	C273.608521,109.197037 291.560730,112.720299 309.533661,116.134514 
	C310.557709,116.329041 311.757782,115.597153 312.875916,115.296425 
	C311.975037,114.567230 311.167358,113.384468 310.159241,113.177376 
	C296.636475,110.399628 283.085754,107.758018 268.694641,104.988686 
M181.592285,357.255127 
	C179.643600,357.108521 177.694916,356.961945 175.746231,356.815338 
	C175.627991,357.602386 175.509750,358.389435 175.391510,359.176483 
	C191.639725,363.063721 208.124161,365.868347 224.889862,368.193268 
	C223.866104,366.486511 222.512802,365.472839 221.013962,365.162811 
	C208.154724,362.502838 195.269165,359.970093 181.592285,357.255127 
M232.995102,128.639923 
	C230.403976,128.081818 227.832932,127.363640 225.213013,127.035271 
	C223.962631,126.878555 222.619446,127.462296 221.318298,127.710648 
	C222.382385,128.657013 223.320450,130.200760 224.530334,130.455963 
	C234.892029,132.641602 245.294296,134.641449 255.713470,136.537231 
	C256.680450,136.713165 257.848236,135.785507 258.922760,135.370270 
	C258.042419,134.615372 257.260468,133.387878 256.266052,133.180893 
	C248.805328,131.627884 241.302689,130.276215 232.995102,128.639923 
z"/>
<path fill="#F5F5F5" opacity="1.000000" stroke="none" 
	d="
M197.659668,145.962784 
	C198.330490,147.420349 198.660187,148.840103 198.571274,150.619385 
	C196.203552,150.653168 194.255646,150.053284 192.305161,150.044662 
	C175.524673,149.970413 158.743240,150.069504 141.963287,149.950745 
	C138.348801,149.925140 136.861145,151.134460 136.948959,154.853363 
	C137.128036,162.436005 136.790512,170.034576 137.102203,177.608643 
	C137.246841,181.123291 138.412567,184.595947 139.056931,188.469696 
	C138.326355,193.570023 137.654251,198.288315 136.716156,203.251617 
	C135.696335,208.749344 138.356705,207.356369 141.377106,205.853897 
	C142.103104,205.849686 142.518051,205.859634 143.222580,206.187775 
	C153.828827,206.639725 164.145386,206.789154 174.462463,206.862122 
	C174.994339,206.865891 175.530838,206.214951 176.451859,205.860489 
	C177.869705,205.854965 178.900879,205.857773 180.160065,206.152527 
	C181.426163,206.828384 182.464249,207.212280 183.643280,207.648315 
	C182.750244,213.515671 181.876038,219.259369 180.957535,225.382324 
	C180.338043,230.060715 177.861313,231.199722 173.656311,231.092880 
	C162.374771,230.806290 151.080780,231.041901 139.792709,230.949921 
	C137.860138,230.934174 135.932388,230.326050 134.002411,229.991577 
	C134.003677,224.605377 133.876160,219.215195 134.042236,213.834076 
	C134.209991,208.398697 134.993637,202.969101 134.940170,197.542572 
	C134.767410,180.005569 134.333740,162.471130 134.469193,144.467194 
	C152.564102,143.998703 170.190536,144.026413 187.816574,143.955185 
	C189.544281,143.948212 191.269531,143.332993 192.995911,143.000092 
	C194.436783,143.975037 195.877670,144.949997 197.659668,145.962784 
z"/>
<path fill="#E5E5E5" opacity="1.000000" stroke="none" 
	d="
M164.010773,323.002197 
	C162.849426,329.314056 161.730469,335.634094 160.518021,341.936127 
	C157.896545,355.561981 155.295105,369.192474 152.516754,382.786591 
	C151.997009,385.329559 152.480591,386.475067 155.074783,386.985352 
	C168.042221,389.536255 180.971176,392.285095 193.948944,394.780823 
	C208.717819,397.621002 223.530319,400.233673 238.310898,403.014099 
	C244.315826,404.143646 250.286606,405.454681 256.636292,406.853607 
	C255.210938,407.678925 253.420807,408.890320 251.633774,408.885773 
	C245.960083,408.871307 240.288589,408.374420 234.612564,408.163635 
	C234.140167,408.146118 233.639984,408.876740 233.076355,409.629883 
	C228.257843,408.672333 223.515671,407.344666 218.381805,406.013367 
	C212.767426,405.299377 207.488510,404.867737 202.332291,403.827759 
	C185.007401,400.333282 167.733719,396.585785 150.421768,393.025818 
	C147.146454,392.352295 147.226151,390.562500 147.824203,387.905121 
	C150.110977,377.744263 152.230484,367.545349 154.352859,357.348206 
	C154.819824,355.104614 155.042389,352.810211 155.457336,349.998138 
	C148.831451,349.998138 142.545639,350.053436 136.264023,349.915863 
	C135.608521,349.901520 134.978027,348.745361 135.138184,348.056702 
	C141.762100,347.993835 147.587036,348.095337 153.402634,347.907928 
	C154.589462,347.869690 156.606125,346.921692 156.774078,346.095154 
	C158.277161,338.697998 159.451782,331.234161 160.858551,322.996338 
	C154.287430,322.996338 148.025299,323.152069 141.779205,322.904022 
	C139.835648,322.826843 137.935486,321.656494 136.015457,320.986572 
	C136.012482,318.621552 136.009506,316.256500 136.275116,313.207611 
	C137.693024,310.013794 138.842346,307.503845 140.142487,304.688629 
	C143.762741,299.284821 147.232147,294.186249 151.103668,288.496735 
	C154.136292,293.140137 156.741455,297.128998 159.281693,301.018463 
	C161.943130,299.352722 163.929016,298.109833 165.937927,297.286377 
	C164.723236,304.358307 163.311752,310.986359 162.370499,317.680542 
	C162.136505,319.344666 163.423111,321.222565 164.010773,323.002197 
z"/>
<path fill="#F5F5F5" opacity="1.000000" stroke="none" 
	d="
M135.727646,321.265930 
	C137.935486,321.656494 139.835648,322.826843 141.779205,322.904022 
	C148.025299,323.152069 154.287430,322.996338 160.858551,322.996338 
	C159.451782,331.234161 158.277161,338.697998 156.774078,346.095154 
	C156.606125,346.921692 154.589462,347.869690 153.402634,347.907928 
	C147.587036,348.095337 141.762100,347.993835 135.472366,347.989197 
	C135.149460,339.171051 135.294647,330.358185 135.727646,321.265930 
z"/>
<path fill="#F5F5F5" opacity="1.000000" stroke="none" 
	d="
M139.991653,304.993896 
	C138.842346,307.503845 137.693024,310.013794 136.277084,312.764404 
	C135.340714,311.722656 134.101196,310.445831 134.088608,309.157043 
	C133.949615,294.925964 133.922455,280.691956 134.104126,266.461823 
	C134.126022,264.747467 135.557938,263.051056 137.138321,261.171875 
	C149.473007,260.997437 161.005722,260.997437 171.365799,260.997437 
	C173.007141,263.707672 174.005753,265.356598 175.004379,267.005524 
	C173.436859,275.107025 171.869339,283.208496 169.815979,291.653351 
	C168.888229,292.000000 168.446320,292.003296 168.002563,291.577942 
	C169.197586,285.008118 170.288513,278.843811 171.625610,272.733307 
	C172.648697,268.057770 172.040146,267.035736 167.340942,267.010956 
	C159.865402,266.971527 152.389481,266.999542 144.913727,267.000153 
	C137.445023,267.000763 137.449524,267.001068 137.963257,274.244873 
	C138.010056,274.904785 137.962082,275.572723 137.938248,276.236206 
	C137.649399,284.276825 137.196396,292.317474 137.205002,300.357666 
	C137.206650,301.904053 139.016144,303.448547 139.991653,304.993896 
z"/>
<path fill="#EAEAEA" opacity="1.000000" stroke="none" 
	d="
M175.281097,266.739655 
	C174.005753,265.356598 173.007141,263.707672 171.365799,260.997437 
	C161.005722,260.997437 149.473007,260.997437 137.472107,260.997498 
	C138.463593,260.332153 139.913147,259.117615 141.384583,259.090515 
	C150.866135,258.915710 160.353134,258.938599 169.836807,259.040070 
	C172.499146,259.068542 174.353592,258.501221 174.914032,255.569992 
	C176.180206,248.947617 177.549911,242.345078 178.831955,235.725632 
	C178.950668,235.112671 178.743500,234.436600 178.640610,233.244965 
	C176.809845,233.162735 175.046188,233.017838 173.282318,233.014862 
	C161.301590,232.994553 149.320282,233.057068 137.340698,232.937988 
	C135.825668,232.922943 132.844742,234.286362 133.732666,230.244049 
	C135.932388,230.326050 137.860138,230.934174 139.792709,230.949921 
	C151.080780,231.041901 162.374771,230.806290 173.656311,231.092880 
	C177.861313,231.199722 180.338043,230.060715 181.254211,225.403656 
	C182.063873,225.364014 182.532532,225.682327 183.001190,226.000641 
	C181.492661,235.017456 180.053589,244.046661 178.446259,253.045837 
	C177.641785,257.550079 176.530396,261.999542 175.281097,266.739655 
z"/>
<path fill="#E3E3E3" opacity="1.000000" stroke="none" 
	d="
M209.582901,93.057510 
	C209.662506,94.737984 209.327454,96.473068 208.980713,98.589584 
	C203.331146,98.312035 197.699951,97.161819 192.054138,97.084801 
	C174.074173,96.839516 156.088745,97.008804 138.105530,96.967484 
	C136.462265,96.963707 134.819824,96.598923 133.177002,96.401787 
	C133.160599,95.843941 133.144196,95.286102 133.127777,94.728256 
	C134.873413,94.483986 136.618576,94.031166 138.364761,94.027176 
	C159.678192,93.978378 180.991852,94.022194 202.305206,93.956787 
	C204.593735,93.949760 206.880600,93.406578 209.582901,93.057510 
z"/>
<path fill="#73CBA9" opacity="1.000000" stroke="none" 
	d="
M132.939255,105.972374 
	C133.364090,105.914330 133.788910,105.856285 135.007690,105.856476 
	C159.388046,105.914703 182.974426,105.914703 206.560822,105.914703 
	C206.608231,106.360054 206.655640,106.805412 206.703049,107.250763 
	C206.058411,107.674072 205.413773,108.097374 204.769135,108.520683 
	C204.389038,108.485237 204.008957,108.449791 202.883881,108.293823 
	C180.833725,108.143829 159.528152,108.164040 138.224106,107.993706 
	C136.457214,107.979576 134.700623,106.676544 132.939255,105.972374 
z"/>
<path fill="#EAEAEA" opacity="1.000000" stroke="none" 
	d="
M207.023056,109.055725 
	C204.945862,120.312981 202.876724,131.571762 200.756836,142.820953 
	C200.684906,143.202667 200.102097,143.488098 199.376312,143.901276 
	C198.354919,143.063385 197.015457,141.987930 197.179810,141.245239 
	C199.436798,131.045807 201.898605,120.891655 204.326675,110.730347 
	C204.399414,110.425865 204.652359,110.164444 205.231995,109.480644 
	C206.102814,109.070801 206.562927,109.063263 207.023056,109.055725 
z"/>
<path fill="#EAEAEA" opacity="1.000000" stroke="none" 
	d="
M192.613235,142.832611 
	C191.269531,143.332993 189.544281,143.948212 187.816574,143.955185 
	C170.190536,144.026413 152.564102,143.998703 134.469193,143.998413 
	C134.963043,143.334930 135.922241,142.098801 136.888382,142.093369 
	C154.706421,141.992950 172.525284,142.033371 190.343887,142.080795 
	C190.973297,142.082474 191.601685,142.461823 192.613235,142.832611 
z"/>
<path fill="#B4ECD5" opacity="1.000000" stroke="none" 
	d="
M207.278168,108.889412 
	C206.562927,109.063263 206.102814,109.070801 205.300888,109.132584 
	C204.959091,109.186829 204.872864,108.848221 204.820999,108.684448 
	C205.413773,108.097374 206.058411,107.674072 206.703049,107.250763 
	C206.655640,106.805412 206.608231,106.360054 206.560822,105.914703 
	C182.974426,105.914703 159.388046,105.914703 135.327408,105.821381 
	C136.597809,105.195862 138.339371,104.213303 140.087570,104.201317 
	C157.129578,104.084435 174.173157,104.059135 191.215225,104.170959 
	C196.497253,104.205627 201.776031,104.738281 207.492615,105.076347 
	C207.797073,106.314201 207.665192,107.518654 207.278168,108.889412 
z"/>
<path fill="#B4ECD5" opacity="1.000000" stroke="none" 
	d="
M132.595886,106.014816 
	C134.700623,106.676544 136.457214,107.979576 138.224106,107.993706 
	C159.528152,108.164040 180.833725,108.143829 202.597015,108.297394 
	C202.100754,108.635170 201.146530,109.034622 200.192001,109.035294 
	C178.073517,109.050919 155.955017,109.027008 133.836533,108.991211 
	C132.853821,108.989616 131.871384,108.806618 129.930649,108.612068 
	C131.007095,107.427643 131.629822,106.742447 132.595886,106.014816 
z"/>
<path fill="#F5F5F2" opacity="1.000000" stroke="none" 
	d="
M317.961853,353.035431 
	C321.070251,352.823700 325.015015,353.662628 327.020813,352.065857 
	C328.608704,350.801819 327.651794,346.522583 328.113281,343.628265 
	C329.546112,334.641571 331.116333,325.676727 332.697540,316.323120 
	C332.300201,316.225800 330.899841,315.882812 329.250275,315.017639 
	C329.001160,314.328491 329.001221,314.161499 329.001312,313.994507 
	C335.113403,315.090637 339.459442,312.536224 342.712219,307.140381 
	C341.543274,306.336548 340.333099,305.504333 339.493835,304.251038 
	C341.317719,304.067200 342.782288,304.248810 344.221649,304.550842 
	C352.445862,306.276733 356.374207,303.762909 358.006805,295.733307 
	C358.131683,295.118988 358.507629,294.555756 358.766876,293.968781 
	C359.403229,295.754395 360.039551,297.539978 360.916443,300.000519 
	C363.376221,300.000519 366.149353,299.945496 368.919708,300.009888 
	C381.569183,300.303741 396.562836,310.628448 401.408722,323.450195 
	C404.473358,331.558746 403.340149,339.373535 404.038239,347.330261 
	C404.200562,349.180206 404.810883,350.990784 405.609680,352.920654 
	C406.781921,353.801880 407.487030,355.134918 408.352264,355.248505 
	C410.235382,355.495728 412.200104,355.121307 414.557678,355.002319 
	C415.168945,368.092926 415.168945,368.105316 402.188843,368.106628 
	C374.418549,368.109406 346.648254,368.098022 318.427917,367.601440 
	C317.972534,362.418732 317.967194,357.727081 317.961853,353.035431 
M383.479614,353.001221 
	C385.809753,353.000854 388.155579,352.829102 390.466339,353.040466 
	C393.905212,353.355072 395.335907,352.111115 395.038422,348.552612 
	C394.542084,342.615570 395.046265,336.490448 393.768646,330.747162 
	C391.737488,321.616516 386.376160,314.531586 377.137451,311.419250 
	C375.901245,311.002808 373.747925,312.819824 372.243896,313.911865 
	C371.579468,314.394287 371.476196,315.649567 371.118195,316.553986 
	C370.198517,314.883087 370.585022,313.429565 370.371979,312.070007 
	C370.208099,311.024384 369.492554,309.496307 368.672363,309.219330 
	C364.777924,307.904572 351.347137,310.834747 348.317444,316.696014 
	C355.459259,318.364105 362.472595,320.002136 369.485901,321.640198 
	C368.706970,322.596741 367.947510,322.965820 367.280426,322.840973 
	C361.435577,321.747253 355.573181,320.710541 349.787201,319.353333 
	C346.509674,318.584534 344.478424,319.476715 342.748291,322.342926 
	C339.802460,327.223022 337.222290,332.042877 337.926270,338.093475 
	C338.327515,341.542023 338.201416,345.090454 337.943298,348.566467 
	C337.677521,352.146179 339.132538,353.103394 342.542816,353.063599 
	C355.855988,352.908295 369.172028,353.000824 383.479614,353.001221 
z"/>
<path fill="#EAEAEA" opacity="1.000000" stroke="none" 
	d="
M321.461945,419.970398 
	C321.010345,419.715790 321.027863,419.477081 321.512573,418.847778 
	C351.969666,418.463562 381.959503,418.469910 411.949341,418.476227 
	C412.545441,418.831573 413.141541,419.186920 413.873901,419.764587 
	C383.317139,419.986755 352.624084,419.986511 321.461945,419.970398 
z"/>
<path fill="#EAEAEA" opacity="1.000000" stroke="none" 
	d="
M319.115723,421.125732 
	C319.044067,420.953247 319.502686,420.949921 319.731506,420.955200 
	C319.702698,421.073090 319.445038,421.185669 319.115723,421.125732 
z"/>
<path fill="#05BD72" opacity="1.000000" stroke="none" 
	d="
M412.369202,418.314636 
	C381.959503,418.469910 351.969666,418.463562 321.521667,418.488831 
	C318.068481,418.266602 317.063660,416.759369 317.103119,413.670990 
	C317.272247,400.424377 317.172607,387.174377 317.082642,373.464203 
	C316.740997,372.523956 316.487640,372.045074 316.142792,371.289795 
	C317.986420,370.689575 319.920990,370.087799 321.856812,370.083740 
	C351.135040,370.022552 380.414307,370.150421 409.690948,369.926727 
	C414.411987,369.890656 415.526337,371.325592 415.420776,375.825287 
	C415.124390,388.461212 415.402527,401.109985 415.209167,413.749908 
	C415.186523,415.229614 413.632935,416.685913 412.369202,418.314636 
M361.974701,402.284821 
	C361.921448,405.199646 361.714722,408.141876 366.052856,408.036591 
	C370.020325,407.940369 370.958221,405.641968 371.056610,402.166870 
	C371.191467,397.403351 371.283386,392.576141 372.153595,387.918182 
	C372.725128,384.858856 372.311310,382.302643 369.793396,381.203735 
	C367.835358,380.349182 364.453552,380.187622 363.035278,381.346527 
	C361.431396,382.657166 360.683075,385.787537 360.685913,388.125275 
	C360.691254,392.534698 361.501282,396.943176 361.974701,402.284821 
z"/>
<path fill="#E3E3E3" opacity="1.000000" stroke="none" 
	d="
M317.528931,353.026733 
	C317.967194,357.727081 317.972534,362.418732 317.955322,367.582092 
	C317.533600,368.058228 317.134399,368.062653 316.438171,368.089294 
	C316.096130,367.113586 316.021179,366.115936 316.010712,365.117615 
	C315.897888,354.355896 317.733002,356.480927 306.507507,354.184204 
	C283.152832,349.405853 259.696533,345.125702 236.294647,340.575684 
	C220.051727,337.417542 203.826523,334.167755 187.603348,330.909332 
	C185.736465,330.534363 183.933548,329.840881 182.100952,329.295105 
	C182.127594,328.705780 182.154236,328.116455 182.180878,327.527130 
	C183.801300,327.527130 185.472870,327.263428 187.034500,327.566406 
	C213.519867,332.704681 240.007965,337.831696 266.459961,343.138092 
	C281.548004,346.164795 296.566650,349.536438 311.632782,352.674835 
	C313.400940,353.043182 315.272400,352.915649 317.528931,353.026733 
z"/>
<path fill="#9EE4C7" opacity="1.000000" stroke="none" 
	d="
M142.932999,205.869583 
	C142.518051,205.859634 142.103104,205.849686 141.135193,205.613617 
	C139.382187,204.593857 138.182175,203.800232 136.982162,203.006592 
	C137.654251,198.288315 138.326355,193.570023 139.321182,188.262604 
	C143.294617,182.497894 146.945328,177.322357 151.140717,171.374634 
	C153.734741,175.766983 155.868576,179.380096 158.127182,183.277405 
	C159.187973,183.449829 160.123993,183.338043 161.266296,183.143127 
	C161.472580,183.059998 161.900375,182.938187 162.286560,182.951599 
	C166.394897,182.695862 167.128555,180.203278 167.308441,176.904266 
	C169.315201,175.091370 171.051636,173.471741 173.152267,171.867767 
	C175.114044,170.959549 176.711609,170.035721 178.009949,169.284927 
	C180.193008,170.681625 182.042648,171.865005 184.182953,173.188522 
	C184.992691,174.216385 185.511749,175.104126 185.874390,176.138641 
	C186.149933,176.519760 186.581879,176.754105 187.307343,177.127670 
	C189.039902,178.572952 190.478973,179.879013 191.918045,181.185089 
	C191.944016,182.850342 191.969986,184.515610 191.735229,186.860565 
	C190.231293,193.660568 188.988098,199.780884 187.744904,205.901199 
	C187.744888,205.901199 187.363388,205.868576 186.796936,205.873993 
	C184.131012,205.873123 182.031540,205.866852 179.932053,205.860565 
	C178.900879,205.857773 177.869705,205.854965 176.130264,205.592377 
	C167.656326,205.211624 159.890396,204.994629 152.125137,205.017380 
	C149.060287,205.026352 145.996994,205.569611 142.932999,205.869583 
z"/>
<path fill="#FBFEFD" opacity="1.000000" stroke="none" 
	d="
M191.946808,180.891815 
	C190.478973,179.879013 189.039902,178.572952 187.203186,176.908813 
	C186.610626,176.276703 186.352371,176.090408 186.030807,175.991867 
	C185.511749,175.104126 184.992691,174.216385 184.170090,172.842773 
	C182.064041,170.178314 180.261520,167.999725 177.918579,165.167969 
	C175.852142,167.860184 174.320099,169.856155 172.788055,171.852127 
	C171.051636,173.471741 169.315201,175.091370 167.000610,177.022385 
	C164.915100,179.201920 163.407745,181.070053 161.900391,182.938187 
	C161.900375,182.938187 161.472580,183.059998 160.885315,183.090500 
	C159.532837,183.078400 158.767609,183.035812 158.002396,182.993210 
	C155.868576,179.380096 153.734741,175.766983 151.140717,171.374634 
	C146.945328,177.322357 143.294617,182.497894 139.379654,187.880539 
	C138.412567,184.595947 137.246841,181.123291 137.102203,177.608643 
	C136.790512,170.034576 137.128036,162.436005 136.948959,154.853363 
	C136.861145,151.134460 138.348801,149.925140 141.963287,149.950745 
	C158.743240,150.069504 175.524673,149.970413 192.305161,150.044662 
	C194.255646,150.053284 196.203552,150.653168 198.575424,150.988251 
	C198.827118,151.551697 198.656052,152.105835 197.841980,152.845154 
	C196.470367,153.905472 195.474838,154.673721 195.072021,155.679367 
	C194.363983,157.447067 193.759003,159.333771 193.568695,161.216919 
	C192.936707,167.470123 192.508499,173.743927 192.002151,180.009827 
	C191.993271,180.206085 191.984406,180.402328 191.946808,180.891815 
M151.560593,155.298874 
	C149.519196,152.274811 146.697891,150.772125 143.542648,153.004715 
	C141.929291,154.146286 140.086060,157.045471 140.520386,158.502197 
	C141.145538,160.599014 143.461243,162.953812 145.575760,163.676926 
	C149.321701,164.957886 152.008896,161.364975 151.560593,155.298874 
z"/>
<path fill="#0BBD74" opacity="1.000000" stroke="none" 
	d="
M247.759338,222.959015 
	C248.777771,221.980545 249.647003,221.074738 250.658966,220.868179 
	C251.737976,220.647964 252.967575,221.014450 254.104126,221.254211 
	C258.297150,222.138794 262.478882,223.076920 267.071869,224.084183 
	C262.930115,244.933868 258.857941,265.433167 254.633377,286.699646 
	C248.376846,285.483582 242.310486,284.304474 235.717468,283.023041 
	C239.783066,262.726837 243.727997,243.033096 247.759338,222.959015 
z"/>
<path fill="#FAD83F" opacity="1.000000" stroke="none" 
	d="
M358.768066,293.557251 
	C358.507629,294.555756 358.131683,295.118988 358.006805,295.733307 
	C356.374207,303.762909 352.445862,306.276733 344.221649,304.550842 
	C342.782288,304.248810 341.317719,304.067200 339.441223,303.908203 
	C338.385406,302.569946 337.753174,301.153442 337.343628,299.159943 
	C337.656616,297.724060 337.746857,296.865204 337.837097,296.006348 
	C338.258209,293.941650 338.679291,291.876984 339.358124,289.158508 
	C340.020111,285.999054 340.424347,283.493408 340.828613,280.987732 
	C340.931702,280.557037 341.034760,280.126343 341.369415,279.111115 
	C341.718994,277.354126 341.836975,276.181641 341.954956,275.009186 
	C342.363037,272.951019 342.771149,270.892883 343.403442,268.188904 
	C343.975006,265.693817 344.322357,263.844513 344.669739,261.995239 
	C344.847809,261.014740 345.025909,260.034210 345.373718,258.509033 
	C345.734131,257.656525 345.924866,257.348694 346.115601,257.040833 
	C346.831421,257.085052 347.547272,257.129303 348.873810,257.377686 
	C350.654999,257.681671 351.825500,257.781586 352.995972,257.881500 
	C355.346527,258.421387 357.697113,258.961243 360.729492,259.698730 
	C362.515564,260.140045 363.619812,260.383789 364.724030,260.627502 
	C364.597717,260.939667 364.585388,261.256287 364.684723,262.128723 
	C364.500000,263.787476 364.317627,264.894867 364.135284,266.002228 
	C364.013611,266.425476 363.891937,266.848755 363.569397,267.846619 
	C363.320496,269.280365 363.272491,270.139526 363.224518,270.998688 
	C363.113129,271.434021 363.001740,271.869324 362.678711,272.868347 
	C362.440399,274.257782 362.413727,275.083527 362.387024,275.909241 
	C361.836792,278.302277 361.286530,280.695343 360.523865,283.701996 
	C360.258209,284.877716 360.204956,285.439850 360.151733,286.001953 
	C359.690857,288.383209 359.230042,290.764465 358.768066,293.557251 
z"/>
<path fill="#42D1A1" opacity="1.000000" stroke="none" 
	d="
M290.893921,280.920593 
	C290.047974,285.063293 289.270386,288.783081 288.304291,293.404633 
	C282.230896,292.245850 276.325073,291.119049 269.594360,289.834869 
	C270.885101,282.898438 272.055725,276.440887 273.294739,269.996552 
	C274.518402,263.631958 275.688812,257.251587 277.187286,250.950592 
	C277.455078,249.824631 279.327972,248.142181 280.253418,248.265472 
	C285.639160,248.983032 290.963348,250.162964 296.651581,251.252380 
	C294.691559,261.327759 292.826935,270.912689 290.893921,280.920593 
z"/>
<path fill="#E3E3E3" opacity="1.000000" stroke="none" 
	d="
M299.081726,175.957458 
	C276.585754,171.606705 254.514725,167.295120 232.448792,162.957703 
	C227.261841,161.938141 222.083420,160.869888 216.925644,159.714417 
	C216.304565,159.575272 215.838028,158.746399 215.579788,157.372528 
	C272.962006,167.367813 329.863281,179.307281 386.921478,190.444000 
	C386.786621,191.242828 386.651764,192.041672 386.516907,192.840515 
	C371.934143,191.230850 357.653320,187.582611 343.250000,184.826447 
	C328.640656,182.030853 314.086761,178.945572 299.081726,175.957458 
z"/>
<path fill="#E3E3E3" opacity="1.000000" stroke="none" 
	d="
M230.216949,146.869751 
	C225.958466,145.837860 222.113541,144.887894 217.475937,143.742081 
	C222.023178,141.104202 385.922821,174.160294 389.475616,176.943604 
	C389.388367,177.403275 389.301117,177.862946 389.213867,178.322617 
	C336.352753,167.865631 283.491638,157.408661 230.216949,146.869751 
z"/>
<path fill="#E3E3E3" opacity="1.000000" stroke="none" 
	d="
M297.513367,95.666603 
	C311.426422,98.305725 324.943665,100.757957 338.439606,103.322166 
	C357.134979,106.874275 375.821075,110.476784 394.491547,114.157166 
	C396.626251,114.577965 398.635345,115.636253 401.461761,116.679024 
	C396.088684,118.549522 258.566528,92.049728 230.629456,84.313721 
	C230.707825,83.824211 230.786179,83.334709 230.864548,82.845200 
	C238.031128,83.992485 245.223053,85.002922 252.357315,86.324638 
	C259.841492,87.711182 267.268036,89.407455 274.724030,90.947624 
	C282.182617,92.488312 289.646454,94.003357 297.513367,95.666603 
z"/>
<path fill="#EF664E" opacity="1.000000" stroke="none" 
	d="
M319.824463,299.854340 
	C314.244293,298.709564 309.069977,297.603271 303.229706,296.354614 
	C304.544159,289.430878 305.709381,282.640320 307.265564,275.940552 
	C307.455322,275.123688 309.838562,274.169495 311.046051,274.349091 
	C315.960541,275.079987 320.813019,276.227631 326.534943,277.394287 
	C325.076508,284.557709 323.671600,291.635590 322.126373,298.682648 
	C322.013000,299.199799 320.886078,299.494659 319.824463,299.854340 
z"/>
<path fill="#E3E3E3" opacity="1.000000" stroke="none" 
	d="
M371.927460,141.032043 
	C374.504333,141.618286 376.660431,142.173340 378.816559,142.728394 
	C378.800903,143.305588 378.785248,143.882797 378.769592,144.459991 
	C377.153015,144.459991 375.486328,144.720428 373.927399,144.420685 
	C352.486542,140.298141 331.039551,136.202377 309.635986,131.892014 
	C281.271454,126.179779 252.943710,120.285034 224.283279,113.400002 
	C225.508667,113.099243 226.825424,112.341560 227.945862,112.565598 
	C247.883575,116.552208 267.769775,120.799576 287.723480,124.702499 
	C312.884308,129.623932 338.098145,134.273727 363.282623,139.074936 
	C366.045959,139.601730 368.766388,140.353455 371.927460,141.032043 
z"/>
<path fill="#E3E3E3" opacity="1.000000" stroke="none" 
	d="
M219.443909,349.664062 
	C232.521133,352.255798 245.197968,354.673309 257.858917,357.171295 
	C274.250763,360.405365 290.631836,363.694275 307.010864,366.992554 
	C308.281281,367.248322 309.499420,367.763611 311.658447,368.449463 
	C306.534241,370.521545 181.785477,346.032776 178.798553,341.611633 
	C192.211182,344.249634 205.623825,346.887604 219.443909,349.664062 
z"/>
<path fill="#73CBA9" opacity="1.000000" stroke="none" 
	d="
M269.118286,105.035645 
	C283.085754,107.758018 296.636475,110.399628 310.159241,113.177376 
	C311.167358,113.384468 311.975037,114.567230 312.875916,115.296432 
	C311.757782,115.597153 310.557709,116.329041 309.533661,116.134514 
	C291.560730,112.720299 273.608521,109.197037 255.653641,105.688103 
	C247.820160,104.157204 239.980942,102.652672 232.167068,101.026894 
	C230.397141,100.658638 228.721725,99.836128 227.242447,98.230606 
	C241.363373,98.906914 254.946289,102.474411 269.118286,105.035645 
z"/>
<path fill="#73CBA9" opacity="1.000000" stroke="none" 
	d="
M181.991882,357.327209 
	C195.269165,359.970093 208.154724,362.502838 221.013962,365.162811 
	C222.512802,365.472839 223.866104,366.486511 224.889862,368.193268 
	C208.124161,365.868347 191.639725,363.063721 175.391510,359.176483 
	C175.509750,358.389435 175.627991,357.602386 175.746231,356.815338 
	C177.694916,356.961945 179.643600,357.108521 181.991882,357.327209 
z"/>
<path fill="#9EE4C7" opacity="1.000000" stroke="none" 
	d="
M233.404144,128.750732 
	C241.302689,130.276215 248.805328,131.627884 256.266052,133.180893 
	C257.260468,133.387878 258.042419,134.615372 258.922760,135.370270 
	C257.848236,135.785507 256.680450,136.713165 255.713470,136.537231 
	C245.294296,134.641449 234.892029,132.641602 224.530334,130.455963 
	C223.320450,130.200760 222.382385,128.657013 221.318298,127.710648 
	C222.619446,127.462296 223.962631,126.878555 225.213013,127.035271 
	C227.832932,127.363640 230.403976,128.081818 233.404144,128.750732 
z"/>
<path fill="#E3E3E3" opacity="1.000000" stroke="none" 
	d="
M168.004395,292.006592 
	C168.446320,292.003296 168.888229,292.000000 169.661407,292.003357 
	C168.035751,302.084045 166.078812,312.158081 164.066330,322.617157 
	C163.423111,321.222565 162.136505,319.344666 162.370499,317.680542 
	C163.311752,310.986359 164.723236,304.358307 165.989395,296.962036 
	C166.680023,294.814362 167.342209,293.410492 168.004395,292.006592 
z"/>
<path fill="#F5F5F5" opacity="1.000000" stroke="none" 
	d="
M328.744965,313.715942 
	C329.001221,314.161499 329.001160,314.328491 329.001160,314.745911 
	C313.168091,311.849640 297.334930,308.702942 281.250916,305.278107 
	C281.000000,305.000000 281.001221,304.998779 281.001221,304.998779 
	C290.419678,306.407990 299.865692,307.658081 309.247131,309.281281 
	C315.707275,310.399017 322.077942,312.033722 328.744965,313.715942 
z"/>
<path fill="#F5F5F5" opacity="1.000000" stroke="none" 
	d="
M280.999390,305.000610 
	C276.593933,304.340363 272.166656,303.800995 267.789001,302.992798 
	C259.214111,301.409790 250.666885,299.676849 242.218063,297.415161 
	C255.293167,298.061859 268.020233,300.628357 280.762482,304.720673 
	C281.001221,304.998779 281.000000,305.000000 280.999390,305.000610 
z"/>
<path fill="#F5F5F5" opacity="1.000000" stroke="none" 
	d="
M192.280640,179.741547 
	C192.508499,173.743927 192.936707,167.470123 193.568695,161.216919 
	C193.759003,159.333771 194.363983,157.447067 195.072021,155.679367 
	C195.474838,154.673721 196.470367,153.905472 197.599182,153.015167 
	C196.912018,158.801147 195.875000,164.612366 194.716690,170.399307 
	C194.106903,173.445847 193.285172,176.449982 192.280640,179.741547 
z"/>
<path fill="#F2F2F2" opacity="1.000000" stroke="none" 
	d="
M180.160065,206.152527 
	C182.031540,205.866852 184.131012,205.873123 186.608017,205.904922 
	C185.844955,212.443985 184.704391,218.957535 183.282501,225.735870 
	C182.532532,225.682327 182.063873,225.364014 181.298523,225.024384 
	C181.876038,219.259369 182.750244,213.515671 183.643280,207.648315 
	C182.464249,207.212280 181.426163,206.828384 180.160065,206.152527 
z"/>
<path fill="#FBFEFD" opacity="1.000000" stroke="none" 
	d="
M188.152863,205.893921 
	C188.988098,199.780884 190.231293,193.660568 191.751404,187.277161 
	C192.345718,189.223709 193.106598,191.480011 192.880249,193.632492 
	C192.508255,197.169891 191.593002,200.665665 190.675842,204.117645 
	C190.483032,204.843399 189.291916,205.303894 188.152863,205.893921 
z"/>
<path fill="#F5F5F2" opacity="1.000000" stroke="none" 
	d="
M340.441406,281.008575 
	C340.424347,283.493408 340.020111,285.999054 339.343018,288.758850 
	C337.692017,286.141510 336.504822,283.293579 340.441406,281.008575 
z"/>
<path fill="#F5F5F2" opacity="1.000000" stroke="none" 
	d="
M364.480286,265.961121 
	C364.317627,264.894867 364.500000,263.787476 364.772491,262.353271 
	C366.072327,262.144897 367.282013,262.263428 368.491730,262.381927 
	C368.620605,262.725922 368.749451,263.069916 368.878326,263.413910 
	C367.527313,264.249268 366.176270,265.084656 364.480286,265.961121 
z"/>
<path fill="#F5F5F2" opacity="1.000000" stroke="none" 
	d="
M364.798401,260.215088 
	C363.619812,260.383789 362.515564,260.140045 361.140320,259.696991 
	C361.759247,258.729370 362.649231,257.961121 363.539246,257.192871 
	C363.983765,258.062805 364.428284,258.932709 364.798401,260.215088 
z"/>
<path fill="#F5F5F2" opacity="1.000000" stroke="none" 
	d="
M344.352783,262.080994 
	C344.322357,263.844513 343.975006,265.693817 343.377289,267.788086 
	C343.429932,266.077606 343.732880,264.122192 344.352783,262.080994 
z"/>
<path fill="#F5F5F2" opacity="1.000000" stroke="none" 
	d="
M352.932678,257.549133 
	C351.825500,257.781586 350.654999,257.681671 349.230682,257.338867 
	C350.274353,257.136200 351.571869,257.176483 352.932678,257.549133 
z"/>
<path fill="#F5F5F2" opacity="1.000000" stroke="none" 
	d="
M341.615356,275.065796 
	C341.836975,276.181641 341.718994,277.354126 341.348877,278.777954 
	C341.156403,277.727051 341.216064,276.424744 341.615356,275.065796 
z"/>
<path fill="#F5F5F2" opacity="1.000000" stroke="none" 
	d="
M363.535461,270.936340 
	C363.272491,270.139526 363.320496,269.280365 363.588013,268.178406 
	C363.820496,268.915100 363.833435,269.894562 363.535461,270.936340 
z"/>
<path fill="#F5F5F2" opacity="1.000000" stroke="none" 
	d="
M337.526611,296.058472 
	C337.746857,296.865204 337.656616,297.724060 337.314270,298.795593 
	C337.113495,298.042419 337.164825,297.076508 337.526611,296.058472 
z"/>
<path fill="#F5F5F2" opacity="1.000000" stroke="none" 
	d="
M362.612854,275.756592 
	C362.413727,275.083527 362.440399,274.257782 362.692352,273.207153 
	C362.891296,273.856171 362.864990,274.730072 362.612854,275.756592 
z"/>
<path fill="#F5F5F2" opacity="1.000000" stroke="none" 
	d="
M360.441956,285.958191 
	C360.204956,285.439850 360.258209,284.877716 360.521393,284.115173 
	C360.731598,284.581299 360.731873,285.247894 360.441956,285.958191 
z"/>
<path fill="#F5F5F2" opacity="1.000000" stroke="none" 
	d="
M345.850433,257.159058 
	C345.924866,257.348694 345.734131,257.656525 345.328125,258.135620 
	C345.270294,257.963654 345.427765,257.620483 345.850433,257.159058 
z"/>
<path fill="#F2F2F2" opacity="1.000000" stroke="none" 
	d="
M143.222580,206.187775 
	C145.996994,205.569611 149.060287,205.026352 152.125137,205.017380 
	C159.890396,204.994629 167.656326,205.211624 175.743591,205.600708 
	C175.530838,206.214951 174.994339,206.865891 174.462463,206.862122 
	C164.145386,206.789154 153.828827,206.639725 143.222580,206.187775 
z"/>
<path fill="#F2F2F2" opacity="1.000000" stroke="none" 
	d="
M136.716156,203.251617 
	C138.182175,203.800232 139.382187,204.593857 140.824127,205.627777 
	C138.356705,207.356369 135.696335,208.749344 136.716156,203.251617 
z"/>
<path fill="#FEFEFE" opacity="1.000000" stroke="none" 
	d="
M168.002563,291.577942 
	C167.342209,293.410492 166.680023,294.814362 165.966370,296.542603 
	C163.929016,298.109833 161.943130,299.352722 159.281693,301.018463 
	C156.741455,297.128998 154.136292,293.140137 151.103668,288.496735 
	C147.232147,294.186249 143.762741,299.284821 140.142487,304.688629 
	C139.016144,303.448547 137.206650,301.904053 137.205002,300.357666 
	C137.196396,292.317474 137.649399,284.276825 137.938248,276.236206 
	C137.962082,275.572723 138.010056,274.904785 137.963257,274.244873 
	C137.449524,267.001068 137.445023,267.000763 144.913727,267.000153 
	C152.389481,266.999542 159.865402,266.971527 167.340942,267.010956 
	C172.040146,267.035736 172.648697,268.057770 171.625610,272.733307 
	C170.288513,278.843811 169.197586,285.008118 168.002563,291.577942 
M143.342590,269.456970 
	C142.651520,270.158325 141.398987,270.840210 141.373810,271.564697 
	C141.295822,273.808838 140.911972,276.708191 142.103256,278.148987 
	C143.371689,279.683105 146.999969,281.066711 148.337830,280.304474 
	C150.167572,279.261932 151.880005,276.056885 151.730713,273.911835 
	C151.435471,269.669067 148.042740,268.493103 143.342590,269.456970 
z"/>
<path fill="#FEFEFE" opacity="1.000000" stroke="none" 
	d="
M382.983307,353.001221 
	C369.172028,353.000824 355.855988,352.908295 342.542816,353.063599 
	C339.132538,353.103394 337.677521,352.146179 337.943298,348.566467 
	C338.201416,345.090454 338.327515,341.542023 337.926270,338.093475 
	C337.222290,332.042877 339.802460,327.223022 342.748291,322.342926 
	C344.478424,319.476715 346.509674,318.584534 349.787201,319.353333 
	C355.573181,320.710541 361.435577,321.747253 367.280426,322.840973 
	C367.947510,322.965820 368.706970,322.596741 369.485901,321.640198 
	C362.472595,320.002136 355.459259,318.364105 348.317444,316.696014 
	C351.347137,310.834747 364.777924,307.904572 368.672363,309.219330 
	C369.492554,309.496307 370.208099,311.024384 370.371979,312.070007 
	C370.585022,313.429565 370.198517,314.883087 371.118195,316.553986 
	C371.476196,315.649567 371.579468,314.394287 372.243896,313.911865 
	C373.747925,312.819824 375.901245,311.002808 377.137451,311.419250 
	C386.376160,314.531586 391.737488,321.616516 393.768646,330.747162 
	C395.046265,336.490448 394.542084,342.615570 395.038422,348.552612 
	C395.335907,352.111115 393.905212,353.355072 390.466339,353.040466 
	C388.155579,352.829102 385.809753,353.000854 382.983307,353.001221 
z"/>
<path fill="#0C945B" opacity="1.000000" stroke="none" 
	d="
M361.975769,401.818420 
	C361.501282,396.943176 360.691254,392.534698 360.685913,388.125275 
	C360.683075,385.787537 361.431396,382.657166 363.035278,381.346527 
	C364.453552,380.187622 367.835358,380.349182 369.793396,381.203735 
	C372.311310,382.302643 372.725128,384.858856 372.153595,387.918182 
	C371.283386,392.576141 371.191467,397.403351 371.056610,402.166870 
	C370.958221,405.641968 370.020325,407.940369 366.052856,408.036591 
	C361.714722,408.141876 361.921448,405.199646 361.975769,401.818420 
z"/>
<path fill="#B4ECD5" opacity="1.000000" stroke="none" 
	d="
M173.152283,171.867767 
	C174.320099,169.856155 175.852142,167.860184 177.918579,165.167969 
	C180.261520,167.999725 182.064041,170.178314 183.879425,172.702637 
	C182.042648,171.865005 180.193008,170.681625 178.009949,169.284927 
	C176.711609,170.035721 175.114044,170.959549 173.152283,171.867767 
z"/>
<path fill="#B4ECD5" opacity="1.000000" stroke="none" 
	d="
M162.286560,182.951599 
	C163.407745,181.070053 164.915100,179.201920 166.730286,177.215668 
	C167.128555,180.203278 166.394897,182.695862 162.286560,182.951599 
z"/>
<path fill="#B4ECD5" opacity="1.000000" stroke="none" 
	d="
M158.127182,183.277405 
	C158.767609,183.035812 159.532837,183.078400 160.679016,183.173645 
	C160.123993,183.338043 159.187973,183.449829 158.127182,183.277405 
z"/>
<path fill="#B4ECD5" opacity="1.000000" stroke="none" 
	d="
M185.874390,176.138641 
	C186.352371,176.090408 186.610626,176.276703 186.909698,176.769592 
	C186.581879,176.754105 186.149933,176.519760 185.874390,176.138641 
z"/>
<path fill="#9EE4C7" opacity="1.000000" stroke="none" 
	d="
M151.709137,155.665833 
	C152.008896,161.364975 149.321701,164.957886 145.575760,163.676926 
	C143.461243,162.953812 141.145538,160.599014 140.520386,158.502197 
	C140.086060,157.045471 141.929291,154.146286 143.542648,153.004715 
	C146.697891,150.772125 149.519196,152.274811 151.709137,155.665833 
z"/>
<path fill="#E5E5E5" opacity="1.000000" stroke="none" 
	d="
M143.703583,269.307343 
	C148.042740,268.493103 151.435471,269.669067 151.730713,273.911835 
	C151.880005,276.056885 150.167572,279.261932 148.337830,280.304474 
	C146.999969,281.066711 143.371689,279.683105 142.103256,278.148987 
	C140.911972,276.708191 141.295822,273.808838 141.373810,271.564697 
	C141.398987,270.840210 142.651520,270.158325 143.703583,269.307343 
z"/>
</svg>